<svg width="93" height="24" viewBox="0 0 93 24" fill="none" xmlns="http://www.w3.org/2000/svg">
<mask id="mask0_13991_3224" style="mask-type:luminance" maskUnits="userSpaceOnUse" x="0" y="0" width="17" height="24">
<path d="M12.4571 0C13.7832 0.788957 14.8734 1.93755 15.5904 3.30867C13.7248 6.99946 9.89461 9.5439 5.49576 9.5439C10.7892 9.5439 15.2645 13.2347 16.4738 18.1685C16.3839 18.9912 16.1726 19.7779 15.8579 20.5129C14.552 19.8116 13.0594 19.4137 11.4748 19.4137C8.06269 19.4137 5.08217 21.2546 3.47053 23.9991C2.25 23.1247 1.27223 21.9245 0.672078 20.5309C2.62762 17.1413 6.29371 14.8463 10.4678 14.8463C5.752 14.8463 1.68806 11.9198 0 7.79067V7.10735C0 6.28019 0.123626 5.48224 0.352897 4.727C1.47003 5.20352 2.69955 5.46875 3.99201 5.46875C7.75924 5.46875 11.0005 3.22551 12.4526 0L12.4571 0Z" fill="white"/>
</mask>
<g mask="url(#mask0_13991_3224)">
<path fill-rule="evenodd" clip-rule="evenodd" d="M14.1846 -0.619141L14.5038 0.268717L-4.18404 6.95799L-4.50098 6.06788L14.1846 -0.619141Z" fill="#FFD374"/>
<path fill-rule="evenodd" clip-rule="evenodd" d="M14.4915 0.235352L14.5275 0.3365L-4.16033 7.02577L-4.19629 6.92462L14.4915 0.235352Z" fill="#FFD374"/>
<path fill-rule="evenodd" clip-rule="evenodd" d="M14.5156 0.304688L14.5516 0.405836L-4.13396 7.09286L-4.16992 6.99396L14.5156 0.304688Z" fill="#FFD374"/>
<path fill-rule="evenodd" clip-rule="evenodd" d="M14.5413 0.370117L14.5773 0.471265L-4.11052 7.15829L-4.14648 7.05939L14.5413 0.370117Z" fill="#FFD374"/>
<path fill-rule="evenodd" clip-rule="evenodd" d="M14.5648 0.4375L14.6007 0.538648L-4.08708 7.22567L-4.12305 7.12453L14.5648 0.4375Z" fill="#FFD374"/>
<path fill-rule="evenodd" clip-rule="evenodd" d="M14.5869 0.504883L14.6229 0.606031L-4.06267 7.29306L-4.09863 7.19191L14.5869 0.504883Z" fill="#FFD274"/>
<path fill-rule="evenodd" clip-rule="evenodd" d="M14.6107 0.573242L14.6466 0.67439L-4.04118 7.36142L-4.07715 7.26027L14.6107 0.573242Z" fill="#FFD274"/>
<path fill-rule="evenodd" clip-rule="evenodd" d="M14.6351 0.640625L14.6711 0.741773L-4.01677 7.4288L-4.05273 7.32765L14.6351 0.640625Z" fill="#FFD274"/>
<path fill-rule="evenodd" clip-rule="evenodd" d="M14.6615 0.707031L14.6974 0.808179L-3.9904 7.4952L-4.02637 7.39406L14.6615 0.707031Z" fill="#FFD175"/>
<path fill-rule="evenodd" clip-rule="evenodd" d="M14.6846 0.774414L14.7206 0.873315L-3.96501 7.56259L-4.00098 7.46144L14.6846 0.774414Z" fill="#FFD175"/>
<path fill-rule="evenodd" clip-rule="evenodd" d="M14.7074 0.842773L14.7433 0.941674L-3.9445 7.63095L-3.98047 7.5298L14.7074 0.842773Z" fill="#FFD175"/>
<path fill-rule="evenodd" clip-rule="evenodd" d="M14.7337 0.90918L14.7697 1.01033L-3.91814 7.6996L-3.9541 7.59845L14.7337 0.90918Z" fill="#FFD075"/>
<path fill-rule="evenodd" clip-rule="evenodd" d="M14.7559 0.976562L14.7918 1.07771L-3.89372 7.76698L-3.92969 7.66584L14.7559 0.976562Z" fill="#FFCF75"/>
<path fill-rule="evenodd" clip-rule="evenodd" d="M14.7806 1.04199L14.8166 1.14314L-3.87126 7.83241L-3.90723 7.73127L14.7806 1.04199Z" fill="#FFCF76"/>
<path fill-rule="evenodd" clip-rule="evenodd" d="M14.805 1.10938L14.841 1.21052L-3.84685 7.89755L-3.88281 7.79865L14.805 1.10938Z" fill="#FFCE76"/>
<path fill-rule="evenodd" clip-rule="evenodd" d="M14.8284 1.17676L14.8644 1.27791L-3.82341 7.96493L-3.85938 7.86378L14.8284 1.17676Z" fill="#FFCE76"/>
<path fill-rule="evenodd" clip-rule="evenodd" d="M14.8519 1.24512L14.8878 1.34627L-3.79773 8.03329L-3.83594 7.93214L14.8519 1.24512Z" fill="#FFCD76"/>
<path fill-rule="evenodd" clip-rule="evenodd" d="M14.8773 1.31152L14.9132 1.41267L-3.77458 8.0997L-3.81055 7.99855L14.8773 1.31152Z" fill="#FFCC77"/>
<path fill-rule="evenodd" clip-rule="evenodd" d="M14.9017 1.37891L14.9377 1.48005L-3.75017 8.16708L-3.78613 8.06593L14.9017 1.37891Z" fill="#FFCB77"/>
<path fill-rule="evenodd" clip-rule="evenodd" d="M14.9248 1.44727L14.9608 1.54841L-3.72478 8.23544L-3.76074 8.13429L14.9248 1.44727Z" fill="#FFCA77"/>
<path fill-rule="evenodd" clip-rule="evenodd" d="M14.9486 1.51465L14.9845 1.61355L-3.70329 8.30282L-3.73926 8.20167L14.9486 1.51465Z" fill="#FFCA78"/>
<path fill-rule="evenodd" clip-rule="evenodd" d="M14.973 1.58301L15.0089 1.68191L-3.67888 8.37118L-3.71484 8.27003L14.973 1.58301Z" fill="#FFC978"/>
<path fill-rule="evenodd" clip-rule="evenodd" d="M14.9951 1.64941L15.0311 1.74831L-3.65447 8.43759L-3.69043 8.33644L14.9951 1.64941Z" fill="#FFC878"/>
<path fill-rule="evenodd" clip-rule="evenodd" d="M15.0208 1.71387L15.0568 1.81502L-3.63103 8.50429L-3.66699 8.40314L15.0208 1.71387Z" fill="#FFC779"/>
<path fill-rule="evenodd" clip-rule="evenodd" d="M15.0443 1.78223L15.0802 1.88337L-3.60759 8.57265L-3.64355 8.4715L15.0443 1.78223Z" fill="#FFC679"/>
<path fill-rule="evenodd" clip-rule="evenodd" d="M15.0697 1.84961L15.1056 1.95076L-3.5822 8.63778L-3.61816 8.53888L15.0697 1.84961Z" fill="#FFC579"/>
<path fill-rule="evenodd" clip-rule="evenodd" d="M15.0931 1.91699L15.1291 2.01814L-3.55651 8.70517L-3.59473 8.60627L15.0931 1.91699Z" fill="#FFC47A"/>
<path fill-rule="evenodd" clip-rule="evenodd" d="M15.1165 1.9834L15.1525 2.08455L-3.53533 8.77157L-3.57129 8.67042L15.1165 1.9834Z" fill="#FFC27A"/>
<path fill-rule="evenodd" clip-rule="evenodd" d="M15.1429 2.05176L15.1789 2.15291L-3.50896 8.83993L-3.54492 8.73878L15.1429 2.05176Z" fill="#FFC17B"/>
<path fill-rule="evenodd" clip-rule="evenodd" d="M15.1641 2.11914L15.2001 2.22029L-3.48552 8.90731L-3.52148 8.80617L15.1641 2.11914Z" fill="#FFC07B"/>
<path fill-rule="evenodd" clip-rule="evenodd" d="M15.1878 2.1875L15.2238 2.28865L-3.46404 8.97567L-3.5 8.87453L15.1878 2.1875Z" fill="#FFBF7C"/>
<path fill-rule="evenodd" clip-rule="evenodd" d="M15.2152 2.25488L15.2511 2.35603L-3.43669 9.04306L-3.47266 8.94191L15.2152 2.25488Z" fill="#FFBE7C"/>
<path fill-rule="evenodd" clip-rule="evenodd" d="M15.2373 2.32227L15.2755 2.42117L-3.41228 9.11044L-3.44824 9.00929L15.2373 2.32227Z" fill="#FFBC7D"/>
<path fill-rule="evenodd" clip-rule="evenodd" d="M15.2611 2.38867L15.297 2.48757L-3.39079 9.17685L-3.42676 9.0757L15.2611 2.38867Z" fill="#FFBB7D"/>
<path fill-rule="evenodd" clip-rule="evenodd" d="M15.2865 2.45508L15.3224 2.55623L-3.3654 9.2455L-3.40137 9.14435L15.2865 2.45508Z" fill="#FFBA7E"/>
<path fill-rule="evenodd" clip-rule="evenodd" d="M15.3109 2.52148L15.3468 2.62263L-3.34099 9.31191L-3.37695 9.21076L15.3109 2.52148Z" fill="#FFB97E"/>
<path fill-rule="evenodd" clip-rule="evenodd" d="M15.3321 2.58789L15.368 2.68904L-3.31755 9.37606L-3.35352 9.27716L15.3321 2.58789Z" fill="#FFB77F"/>
<path fill-rule="evenodd" clip-rule="evenodd" d="M15.3577 2.65625L15.3937 2.7574L-3.29411 9.44442L-3.33008 9.34552L15.3577 2.65625Z" fill="#FFB67F"/>
<path fill-rule="evenodd" clip-rule="evenodd" d="M15.3822 2.72363L15.4181 2.82478L-3.2697 9.51181L-3.30566 9.41066L15.3822 2.72363Z" fill="#FFB480"/>
<path fill-rule="evenodd" clip-rule="evenodd" d="M15.4053 2.79102L15.4413 2.89216L-3.24431 9.57919L-3.28027 9.47804L15.4053 2.79102Z" fill="#FFB380"/>
<path fill-rule="evenodd" clip-rule="evenodd" d="M15.43 2.8584L15.466 2.95955L-3.22185 9.64657L-3.25781 9.54542L15.43 2.8584Z" fill="#FFB181"/>
<path fill-rule="evenodd" clip-rule="evenodd" d="M15.4534 2.92676L15.4894 3.02791L-3.19841 9.71493L-3.23438 9.61378L15.4534 2.92676Z" fill="#FFB081"/>
<path fill-rule="evenodd" clip-rule="evenodd" d="M15.4779 2.99219L15.5138 3.09334L-3.174 9.78036L-3.20996 9.67921L15.4779 2.99219Z" fill="#FFAE82"/>
<path fill-rule="evenodd" clip-rule="evenodd" d="M15.503 3.06055L15.5389 3.1617L-3.14665 9.84872L-3.18262 9.74757L15.503 3.06055Z" fill="#FFAD83"/>
<path fill-rule="evenodd" clip-rule="evenodd" d="M15.5247 3.12793L15.5607 3.22683L-3.12712 9.9161L-3.16309 9.81495L15.5247 3.12793Z" fill="#FFAB83"/>
<path fill-rule="evenodd" clip-rule="evenodd" d="M15.5511 3.19434L15.5871 3.29548L-3.10075 9.98476L-3.13672 9.88361L15.5511 3.19434Z" fill="#FFAA84"/>
<path fill-rule="evenodd" clip-rule="evenodd" d="M15.5733 3.26074L15.6092 3.36189L-3.07634 10.0512L-3.1123 9.95002L15.5733 3.26074Z" fill="#FFA885"/>
<path fill-rule="evenodd" clip-rule="evenodd" d="M15.598 3.32715L15.6339 3.4283L-3.05388 10.1176L-3.08984 10.0164L15.598 3.32715Z" fill="#FFA785"/>
<path fill-rule="evenodd" clip-rule="evenodd" d="M15.6234 3.39648L15.6593 3.49763L-3.02849 10.1847L-3.06445 10.0858L15.6234 3.39648Z" fill="#FFA586"/>
<path fill-rule="evenodd" clip-rule="evenodd" d="M15.6446 3.46387L15.6828 3.56502L-3.00505 10.252L-3.04102 10.1509L15.6446 3.46387Z" fill="#FFA386"/>
<path fill-rule="evenodd" clip-rule="evenodd" d="M15.6693 3.53125L15.7052 3.6324L-2.98259 10.3194L-3.01855 10.2183L15.6693 3.53125Z" fill="#FFA287"/>
<path fill-rule="evenodd" clip-rule="evenodd" d="M15.6966 3.59668L15.7326 3.69783L-2.95525 10.3849L-2.99121 10.2837L15.6966 3.59668Z" fill="#FFA088"/>
<path fill-rule="evenodd" clip-rule="evenodd" d="M15.72 3.66602L15.756 3.76716L-2.93181 10.4542L-2.96777 10.353L15.72 3.66602Z" fill="#FF9E88"/>
<path fill-rule="evenodd" clip-rule="evenodd" d="M15.7412 3.7334L15.7772 3.83455L-2.90837 10.5216L-2.94434 10.4204L15.7412 3.7334Z" fill="#FF9D89"/>
<path fill-rule="evenodd" clip-rule="evenodd" d="M15.7679 3.7998L15.8039 3.90095L-2.88396 10.588L-2.91992 10.4868L15.7679 3.7998Z" fill="#FF9B8A"/>
<path fill-rule="evenodd" clip-rule="evenodd" d="M15.7923 3.86914L15.8283 3.96804L-2.85954 10.6573L-2.89551 10.5562L15.7923 3.86914Z" fill="#FF998B"/>
<path fill-rule="evenodd" clip-rule="evenodd" d="M15.8135 3.93262L15.8495 4.03377L-2.83611 10.723L-2.87207 10.6219L15.8135 3.93262Z" fill="#FF988B"/>
<path fill-rule="evenodd" clip-rule="evenodd" d="M15.8411 4.00098L15.8771 4.10213L-2.81072 10.7914L-2.84668 10.6903L15.8411 4.00098Z" fill="#FF968C"/>
<path fill-rule="evenodd" clip-rule="evenodd" d="M15.8646 4.06934L15.9005 4.17048L-2.78728 10.8598L-2.82324 10.7586L15.8646 4.06934Z" fill="#FF948D"/>
<path fill-rule="evenodd" clip-rule="evenodd" d="M15.888 4.13574L15.924 4.23689L-2.76384 10.9239L-2.7998 10.825L15.888 4.13574Z" fill="#FF938D"/>
<path fill-rule="evenodd" clip-rule="evenodd" d="M15.9105 4.2041L15.9464 4.30525L-2.73913 10.9923L-2.77734 10.8934L15.9105 4.2041Z" fill="#FF918E"/>
<path fill-rule="evenodd" clip-rule="evenodd" d="M15.9349 4.26953L15.9709 4.37068L-2.71697 11.0577L-2.75293 10.9566L15.9349 4.26953Z" fill="#FF8F8F"/>
<path fill-rule="evenodd" clip-rule="evenodd" d="M15.9603 4.33789L15.9962 4.43904L-2.69158 11.1261L-2.72754 11.0249L15.9603 4.33789Z" fill="#FF8D90"/>
<path fill-rule="evenodd" clip-rule="evenodd" d="M15.9844 4.40527L16.0204 4.50642L-2.66521 11.1934L-2.70117 11.0923L15.9844 4.40527Z" fill="#FF8C90"/>
<path fill-rule="evenodd" clip-rule="evenodd" d="M16.0062 4.47266L16.0421 4.5738L-2.64568 11.2608L-2.68164 11.1597L16.0062 4.47266Z" fill="#FF8A91"/>
<path fill-rule="evenodd" clip-rule="evenodd" d="M16.0306 4.54004L16.0666 4.64119L-2.62126 11.3282L-2.65723 11.2271L16.0306 4.54004Z" fill="#FF8892"/>
<path fill-rule="evenodd" clip-rule="evenodd" d="M16.0557 4.60645L16.0939 4.70759L-2.59392 11.3946L-2.62988 11.2935L16.0557 4.60645Z" fill="#FF8693"/>
<path fill-rule="evenodd" clip-rule="evenodd" d="M16.0794 4.67188L16.1154 4.77302L-2.57243 11.4623L-2.6084 11.3611L16.0794 4.67188Z" fill="#FF8593"/>
<path fill-rule="evenodd" clip-rule="evenodd" d="M16.1038 4.74023L16.1398 4.84138L-2.54802 11.5307L-2.58398 11.4295L16.1038 4.74023Z" fill="#FF8394"/>
<path fill-rule="evenodd" clip-rule="evenodd" d="M16.1283 4.80859L16.1642 4.90974L-2.52361 11.599L-2.55957 11.4979L16.1283 4.80859Z" fill="#FF8195"/>
<path fill-rule="evenodd" clip-rule="evenodd" d="M16.1507 4.875L16.1867 4.97615L-2.4989 11.6654L-2.53711 11.5643L16.1507 4.875Z" fill="#FF7F96"/>
<path fill-rule="evenodd" clip-rule="evenodd" d="M16.1761 4.94141L16.2121 5.04255L-2.47575 11.7296L-2.51172 11.6307L16.1761 4.94141Z" fill="#FF7D96"/>
<path fill-rule="evenodd" clip-rule="evenodd" d="M16.2005 5.01074L16.2365 5.11189L-2.45134 11.7989L-2.4873 11.6978L16.2005 5.01074Z" fill="#FF7C97"/>
<path fill-rule="evenodd" clip-rule="evenodd" d="M16.2227 5.07715L16.2586 5.1783L-2.42693 11.8653L-2.46289 11.7642L16.2227 5.07715Z" fill="#FF7A98"/>
<path fill-rule="evenodd" clip-rule="evenodd" d="M16.2484 5.14453L16.2843 5.24568L-2.40349 11.9327L-2.43945 11.8316L16.2484 5.14453Z" fill="#FF7899"/>
<path fill-rule="evenodd" clip-rule="evenodd" d="M16.2728 5.21094L16.3087 5.31209L-2.37908 11.9991L-2.41504 11.898L16.2728 5.21094Z" fill="#FF7699"/>
<path fill-rule="evenodd" clip-rule="evenodd" d="M16.294 5.2793L16.3322 5.38045L-2.35564 12.0675L-2.3916 11.9663L16.294 5.2793Z" fill="#FF759A"/>
<path fill-rule="evenodd" clip-rule="evenodd" d="M16.3206 5.34766L16.3566 5.4488L-2.32898 12.1358L-2.36719 12.0347L16.3206 5.34766Z" fill="#FF739B"/>
<path fill-rule="evenodd" clip-rule="evenodd" d="M16.3441 5.41406L16.38 5.51296L-2.30779 12.2022L-2.34375 12.1011L16.3441 5.41406Z" fill="#FF719C"/>
<path fill-rule="evenodd" clip-rule="evenodd" d="M16.3695 5.47949L16.4054 5.58064L-2.2824 12.2699L-2.31836 12.1688L16.3695 5.47949Z" fill="#FF709C"/>
<path fill-rule="evenodd" clip-rule="evenodd" d="M16.3916 5.54688L16.4276 5.64802L-2.25798 12.3373L-2.29395 12.2361L16.3916 5.54688Z" fill="#FF6E9D"/>
<path fill-rule="evenodd" clip-rule="evenodd" d="M16.4163 5.61523L16.4523 5.71638L-2.23552 12.4057L-2.27148 12.3045L16.4163 5.61523Z" fill="#FF6C9E"/>
<path fill-rule="evenodd" clip-rule="evenodd" d="M16.4408 5.68262L16.4767 5.78377L-2.21111 12.4708L-2.24707 12.3719L16.4408 5.68262Z" fill="#FF6A9F"/>
<path fill-rule="evenodd" clip-rule="evenodd" d="M16.4639 5.75L16.5021 5.85115L-2.18572 12.5382L-2.22168 12.437L16.4639 5.75Z" fill="#FF69A0"/>
<path fill-rule="evenodd" clip-rule="evenodd" d="M16.4876 5.81738L16.5236 5.91853L-2.16423 12.6056L-2.2002 12.5044L16.4876 5.81738Z" fill="#FF67A0"/>
<path fill-rule="evenodd" clip-rule="evenodd" d="M16.512 5.88281L16.548 5.98396L-2.13982 12.671L-2.17578 12.5698L16.512 5.88281Z" fill="#FF65A1"/>
<path fill-rule="evenodd" clip-rule="evenodd" d="M16.5384 5.95117L16.5744 6.05232L-2.11345 12.7393L-2.14941 12.6382L16.5384 5.95117Z" fill="#FF64A2"/>
<path fill-rule="evenodd" clip-rule="evenodd" d="M16.5606 6.01855L16.5965 6.1197L-2.08904 12.8067L-2.125 12.7056L16.5606 6.01855Z" fill="#FF62A3"/>
<path fill-rule="evenodd" clip-rule="evenodd" d="M16.5853 6.08691L16.6212 6.18806L-2.06658 12.8751L-2.10254 12.7739L16.5853 6.08691Z" fill="#FF61A3"/>
<path fill-rule="evenodd" clip-rule="evenodd" d="M16.6107 6.1543L16.6466 6.2532L-2.04118 12.9425L-2.07715 12.8413L16.6107 6.1543Z" fill="#FF5FA4"/>
<path fill-rule="evenodd" clip-rule="evenodd" d="M16.6309 6.22266L16.6668 6.32156L-2.01872 13.0108L-2.05469 12.9097L16.6309 6.22266Z" fill="#FF5DA5"/>
<path fill-rule="evenodd" clip-rule="evenodd" d="M16.6566 6.28613L16.6925 6.38728L-1.99529 13.0766L-2.03125 12.9754L16.6566 6.28613Z" fill="#FF5CA6"/>
<path fill-rule="evenodd" clip-rule="evenodd" d="M16.681 6.35449L16.7169 6.45564L-1.97087 13.1449L-2.00684 13.0438L16.681 6.35449Z" fill="#FF5AA6"/>
<path fill-rule="evenodd" clip-rule="evenodd" d="M16.7064 6.41992L16.7423 6.52107L-1.94548 13.2081L-1.98145 13.1092L16.7064 6.41992Z" fill="#FF59A7"/>
<path fill-rule="evenodd" clip-rule="evenodd" d="M16.7288 6.49023L16.7648 6.59138L-1.92077 13.2784L-1.95898 13.1795L16.7288 6.49023Z" fill="#FF57A8"/>
<path fill-rule="evenodd" clip-rule="evenodd" d="M16.7533 6.55566L16.7892 6.65681L-1.89861 13.3438L-1.93457 13.2427L16.7533 6.55566Z" fill="#FF56A9"/>
<path fill-rule="evenodd" clip-rule="evenodd" d="M16.7767 6.62305L16.8127 6.7242L-1.87517 13.4112L-1.91113 13.3101L16.7767 6.62305Z" fill="#FF54A9"/>
<path fill-rule="evenodd" clip-rule="evenodd" d="M16.8008 6.69141L16.8368 6.79255L-1.8488 13.4796L-1.88477 13.3784L16.8008 6.69141Z" fill="#FF53AA"/>
<path fill-rule="evenodd" clip-rule="evenodd" d="M16.8255 6.75977L16.8615 6.86091L-1.82634 13.5479L-1.8623 13.4468L16.8255 6.75977Z" fill="#FF51AB"/>
<path fill-rule="evenodd" clip-rule="evenodd" d="M16.849 6.82715L16.8849 6.9283L-1.8029 13.6153L-1.83887 13.5142L16.849 6.82715Z" fill="#FF50AC"/>
<path fill-rule="evenodd" clip-rule="evenodd" d="M16.8731 6.89355L16.909 6.99246L-1.77654 13.6817L-1.8125 13.5806L16.8731 6.89355Z" fill="#FF4FAC"/>
<path fill-rule="evenodd" clip-rule="evenodd" d="M16.8978 6.96191L16.9337 7.06081L-1.75408 13.7501L-1.79004 13.6489L16.8978 6.96191Z" fill="#FF4DAD"/>
<path fill-rule="evenodd" clip-rule="evenodd" d="M16.9212 7.02539L16.9572 7.12654L-1.73064 13.8158L-1.7666 13.7147L16.9212 7.02539Z" fill="#FF4CAE"/>
<path fill-rule="evenodd" clip-rule="evenodd" d="M16.9476 7.09277L16.9836 7.19392L-1.70427 13.8832L-1.74023 13.782L16.9476 7.09277Z" fill="#FF4BAE"/>
<path fill-rule="evenodd" clip-rule="evenodd" d="M16.97 7.16113L17.006 7.26228L-1.67956 13.9493L-1.71777 13.8504L16.97 7.16113Z" fill="#FF49AF"/>
<path fill-rule="evenodd" clip-rule="evenodd" d="M16.9935 7.22754L17.0294 7.32869L-1.65837 14.0157L-1.69434 13.9168L16.9935 7.22754Z" fill="#FF48B0"/>
<path fill-rule="evenodd" clip-rule="evenodd" d="M17.0199 7.2959L17.0558 7.39705L-1.632 14.0841L-1.66797 13.9829L17.0199 7.2959Z" fill="#FF47B1"/>
<path fill-rule="evenodd" clip-rule="evenodd" d="M17.042 7.36426L17.078 7.46541L-1.60759 14.1524L-1.64355 14.0513L17.042 7.36426Z" fill="#FF46B1"/>
<path fill-rule="evenodd" clip-rule="evenodd" d="M17.0658 7.43066L17.1017 7.53181L-1.58611 14.2188L-1.62207 14.1177L17.0658 7.43066Z" fill="#FF45B2"/>
<path fill-rule="evenodd" clip-rule="evenodd" d="M17.0911 7.49707L17.1271 7.59822L-1.56072 14.2852L-1.59668 14.1841L17.0911 7.49707Z" fill="#FF44B3"/>
<path fill-rule="evenodd" clip-rule="evenodd" d="M17.1133 7.56543L17.1515 7.66658L-1.5363 14.3536L-1.57227 14.2525L17.1133 7.56543Z" fill="#FF42B3"/>
<path fill-rule="evenodd" clip-rule="evenodd" d="M17.139 7.63281L17.175 7.73171L-1.51062 14.421L-1.54883 14.3198L17.139 7.63281Z" fill="#FF41B4"/>
<path fill-rule="evenodd" clip-rule="evenodd" d="M17.1644 7.69922L17.2003 7.79812L-1.48747 14.4874L-1.52344 14.3862L17.1644 7.69922Z" fill="#FF40B5"/>
<path fill-rule="evenodd" clip-rule="evenodd" d="M17.1878 7.76855L17.2238 7.86745L-1.46404 14.5567L-1.5 14.4556L17.1878 7.76855Z" fill="#FF3FB5"/>
<path fill-rule="evenodd" clip-rule="evenodd" d="M17.21 7.83203L17.2459 7.93318L-1.43962 14.6225L-1.47559 14.5213L17.21 7.83203Z" fill="#FF3EB6"/>
<path fill-rule="evenodd" clip-rule="evenodd" d="M17.2347 7.90039L17.2707 8.00154L-1.41716 14.6908L-1.45312 14.5897L17.2347 7.90039Z" fill="#FF3EB6"/>
<path fill-rule="evenodd" clip-rule="evenodd" d="M17.2581 7.96777L17.2941 8.06892L-1.39372 14.7559L-1.42969 14.657L17.2581 7.96777Z" fill="#FF3DB7"/>
<path fill-rule="evenodd" clip-rule="evenodd" d="M17.2823 8.03613L17.3182 8.13728L-1.36736 14.8243L-1.40332 14.7254L17.2823 8.03613Z" fill="#FF3CB8"/>
<path fill-rule="evenodd" clip-rule="evenodd" d="M17.306 8.10254L17.3419 8.20369L-1.34587 14.8907L-1.38184 14.7896L17.306 8.10254Z" fill="#FF3BB8"/>
<path fill-rule="evenodd" clip-rule="evenodd" d="M17.3304 8.16895L17.3664 8.27009L-1.32146 14.9571L-1.35742 14.856L17.3304 8.16895Z" fill="#FF3AB9"/>
<path fill-rule="evenodd" clip-rule="evenodd" d="M17.3545 8.2373L17.3927 8.33845L-1.29509 15.0255L-1.33105 14.9243L17.3545 8.2373Z" fill="#FF3AB9"/>
<path fill-rule="evenodd" clip-rule="evenodd" d="M17.3799 8.30566L17.4159 8.40681L-1.2697 15.0938L-1.30566 14.9927L17.3799 8.30566Z" fill="#FF39BA"/>
<path fill-rule="evenodd" clip-rule="evenodd" d="M17.4036 8.37305L17.4396 8.4742L-1.24822 15.1612L-1.28418 15.0601L17.4036 8.37305Z" fill="#FF38BB"/>
<path fill-rule="evenodd" clip-rule="evenodd" d="M17.4281 8.44043L17.464 8.53933L-1.2238 15.2286L-1.25977 15.1275L17.4281 8.44043Z" fill="#FF38BB"/>
<path fill-rule="evenodd" clip-rule="evenodd" d="M17.4502 8.50684L17.4862 8.60574L-1.19939 15.295L-1.23535 15.1939L17.4502 8.50684Z" fill="#FF37BC"/>
<path fill-rule="evenodd" clip-rule="evenodd" d="M17.474 8.57227L17.5099 8.67341L-1.1779 15.3627L-1.21387 15.2615L17.474 8.57227Z" fill="#FF37BC"/>
<path fill-rule="evenodd" clip-rule="evenodd" d="M17.5013 8.64062L17.5373 8.74177L-1.15056 15.431L-1.18652 15.3299L17.5013 8.64062Z" fill="#FF36BD"/>
<path fill-rule="evenodd" clip-rule="evenodd" d="M17.5225 8.70801L17.5607 8.80916L-1.12712 15.4962L-1.16309 15.3973L17.5225 8.70801Z" fill="#FF36BD"/>
<path fill-rule="evenodd" clip-rule="evenodd" d="M17.5462 8.77539L17.5822 8.87654L-1.10564 15.5636L-1.1416 15.4647L17.5462 8.77539Z" fill="#FF35BE"/>
<path fill-rule="evenodd" clip-rule="evenodd" d="M17.5726 8.8418L17.6086 8.94295L-1.07927 15.63L-1.11523 15.5288L17.5726 8.8418Z" fill="#FF35BE"/>
<path fill-rule="evenodd" clip-rule="evenodd" d="M17.597 8.90918L17.633 9.01033L-1.05486 15.6974L-1.09082 15.5962L17.597 8.90918Z" fill="#FF35BF"/>
<path fill-rule="evenodd" clip-rule="evenodd" d="M17.6182 8.97656L17.6542 9.07771L-1.03142 15.7647L-1.06738 15.6636L17.6182 8.97656Z" fill="#FF34BF"/>
<path fill-rule="evenodd" clip-rule="evenodd" d="M17.6439 9.0459L17.6798 9.14705L-1.00798 15.8341L-1.04395 15.7329L17.6439 9.0459Z" fill="#FF34C0"/>
<path fill-rule="evenodd" clip-rule="evenodd" d="M17.6673 9.11133L17.7033 9.21248L-0.984544 15.8995L-1.02051 15.7984L17.6673 9.11133Z" fill="#FF34C0"/>
<path fill-rule="evenodd" clip-rule="evenodd" d="M17.6914 9.17871L17.7274 9.27986L-0.958177 15.9669L-0.994141 15.8657L17.6914 9.17871Z" fill="#FF34C1"/>
<path fill-rule="evenodd" clip-rule="evenodd" d="M17.7171 9.24707L17.7531 9.34597L-0.934739 16.0352L-0.970703 15.9341L17.7171 9.24707Z" fill="#FF34C1"/>
<path fill-rule="evenodd" clip-rule="evenodd" d="M17.7406 9.3125L17.7765 9.41365L-0.911302 16.1029L-0.947266 16.0018L17.7406 9.3125Z" fill="#FF34C1"/>
<path fill-rule="evenodd" clip-rule="evenodd" d="M17.765 9.37891L17.8009 9.48005L-0.886888 16.1693L-0.922852 16.0682L17.765 9.37891Z" fill="#FF34C2"/>
<path fill-rule="evenodd" clip-rule="evenodd" d="M17.7874 9.44727L17.8234 9.54841L-0.862179 16.2377L-0.900391 16.1365L17.7874 9.44727Z" fill="#FF34C2"/>
<path fill-rule="evenodd" clip-rule="evenodd" d="M17.8109 9.51465L17.8468 9.6158L-0.840989 16.3028L-0.876953 16.2039L17.8109 9.51465Z" fill="#FF34C3"/>
<path fill-rule="evenodd" clip-rule="evenodd" d="M17.8382 9.58203L17.8742 9.68318L-0.813645 16.3702L-0.849609 16.2691L17.8382 9.58203Z" fill="#FE34C3"/>
<path fill-rule="evenodd" clip-rule="evenodd" d="M17.8604 9.64844L17.8963 9.74959L-0.789231 16.4366L-0.825195 16.3355L17.8604 9.64844Z" fill="#FE34C4"/>
<path fill-rule="evenodd" clip-rule="evenodd" d="M17.8841 9.71777L17.9201 9.81892L-0.767747 16.5059L-0.803711 16.4048L17.8841 9.71777Z" fill="#FE34C4"/>
<path fill-rule="evenodd" clip-rule="evenodd" d="M17.9095 9.7832L17.9455 9.88435L-0.742356 16.5714L-0.77832 16.4702L17.9095 9.7832Z" fill="#FD34C5"/>
<path fill-rule="evenodd" clip-rule="evenodd" d="M17.9326 9.85156L17.9686 9.95271L-0.716966 16.6397L-0.75293 16.5386L17.9326 9.85156Z" fill="#FD34C5"/>
<path fill-rule="evenodd" clip-rule="evenodd" d="M17.9554 9.91895L17.9914 10.0201L-0.69421 16.7071L-0.732422 16.606L17.9554 9.91895Z" fill="#FC34C5"/>
<path fill-rule="evenodd" clip-rule="evenodd" d="M17.9808 9.98633L18.0168 10.0852L-0.671067 16.7745L-0.707031 16.6734L17.9808 9.98633Z" fill="#FC35C6"/>
<path fill-rule="evenodd" clip-rule="evenodd" d="M18.0052 10.0508L18.0412 10.1519L-0.646653 16.8412L-0.682617 16.7401L18.0052 10.0508Z" fill="#FB35C6"/>
<path fill-rule="evenodd" clip-rule="evenodd" d="M18.0274 10.1191L18.0633 10.2203L-0.622239 16.9096L-0.658203 16.8084L18.0274 10.1191Z" fill="#FA35C7"/>
<path fill-rule="evenodd" clip-rule="evenodd" d="M18.054 10.1865L18.09 10.2877L-0.597825 16.9769L-0.633789 16.8758L18.054 10.1865Z" fill="#FA35C7"/>
<path fill-rule="evenodd" clip-rule="evenodd" d="M18.0775 10.2539L18.1134 10.3551L-0.574387 17.0421L-0.610352 16.9432L18.0775 10.2539Z" fill="#F935C8"/>
<path fill-rule="evenodd" clip-rule="evenodd" d="M18.1006 10.3203L18.1366 10.4215L-0.548997 17.1085L-0.584961 17.0073L18.1006 10.3203Z" fill="#F835C8"/>
<path fill-rule="evenodd" clip-rule="evenodd" d="M18.1253 10.3887L18.1613 10.4898L-0.526536 17.1768L-0.5625 17.0757L18.1253 10.3887Z" fill="#F735C8"/>
<path fill-rule="evenodd" clip-rule="evenodd" d="M18.1488 10.4561L18.1847 10.5572L-0.503098 17.2442L-0.539062 17.1431L18.1488 10.4561Z" fill="#F635C9"/>
<path fill-rule="evenodd" clip-rule="evenodd" d="M18.1719 10.5234L18.2101 10.6246L-0.477708 17.3116L-0.513672 17.2105L18.1719 10.5234Z" fill="#F535C9"/>
<path fill-rule="evenodd" clip-rule="evenodd" d="M18.1966 10.5908L18.2326 10.692L-0.452999 17.379L-0.491211 17.2778L18.1966 10.5908Z" fill="#F436CA"/>
<path fill-rule="evenodd" clip-rule="evenodd" d="M18.221 10.6582L18.257 10.7594L-0.430833 17.4464L-0.466797 17.3452L18.221 10.6582Z" fill="#F336CA"/>
<path fill-rule="evenodd" clip-rule="evenodd" d="M18.2454 10.7246L18.2814 10.8258L-0.406419 17.5128L-0.442383 17.4116L18.2454 10.7246Z" fill="#F236CA"/>
<path fill-rule="evenodd" clip-rule="evenodd" d="M18.2686 10.792L18.3045 10.8931L-0.381028 17.5824L-0.416992 17.4813L18.2686 10.792Z" fill="#F136CB"/>
<path fill-rule="evenodd" clip-rule="evenodd" d="M18.2933 10.8594L18.3292 10.9605L-0.358567 17.6498L-0.394531 17.5486L18.2933 10.8594Z" fill="#F036CB"/>
<path fill-rule="evenodd" clip-rule="evenodd" d="M18.3187 10.9258L18.3546 11.0269L-0.333177 17.7162L-0.369141 17.6151L18.3187 10.9258Z" fill="#EF36CC"/>
<path fill-rule="evenodd" clip-rule="evenodd" d="M18.3418 10.9922L18.38 11.0933L-0.307786 17.7826L-0.34375 17.6815L18.3418 10.9922Z" fill="#EE37CC"/>
<path fill-rule="evenodd" clip-rule="evenodd" d="M18.3656 11.0605L18.4015 11.1617L-0.286302 17.8487L-0.322266 17.7498L18.3656 11.0605Z" fill="#EC37CC"/>
<path fill-rule="evenodd" clip-rule="evenodd" d="M18.39 11.1279L18.4259 11.2291L-0.261887 17.9161L-0.297852 17.815L18.39 11.1279Z" fill="#EB37CD"/>
<path fill-rule="evenodd" clip-rule="evenodd" d="M18.4154 11.1963L18.4513 11.2974L-0.236497 17.9845L-0.272461 17.8833L18.4154 11.1963Z" fill="#EA37CD"/>
<path fill-rule="evenodd" clip-rule="evenodd" d="M18.4365 11.2627L18.4725 11.3638L-0.213059 18.0509L-0.249023 17.9497L18.4365 11.2627Z" fill="#E837CE"/>
<path fill-rule="evenodd" clip-rule="evenodd" d="M18.4613 11.332L18.4972 11.4332L-0.190598 18.1202L-0.226562 18.0191L18.4613 11.332Z" fill="#E738CE"/>
<path fill-rule="evenodd" clip-rule="evenodd" d="M18.4886 11.3975L18.5246 11.4986L-0.163255 18.1856L-0.199219 18.0845L18.4886 11.3975Z" fill="#E638CE"/>
<path fill-rule="evenodd" clip-rule="evenodd" d="M18.5098 11.4648L18.5458 11.566L-0.139817 18.253L-0.175781 18.1519L18.5098 11.4648Z" fill="#E438CF"/>
<path fill-rule="evenodd" clip-rule="evenodd" d="M18.5345 11.5322L18.5705 11.6311L-0.117356 18.3204L-0.15332 18.2193L18.5345 11.5322Z" fill="#E338CF"/>
<path fill-rule="evenodd" clip-rule="evenodd" d="M18.5579 11.5967L18.5939 11.6978L-0.0939188 18.3871L-0.129883 18.286L18.5579 11.5967Z" fill="#E138D0"/>
<path fill-rule="evenodd" clip-rule="evenodd" d="M18.5811 11.665L18.6193 11.7662L-0.0685281 18.4555L-0.104492 18.3543L18.5811 11.665Z" fill="#E039D0"/>
<path fill-rule="evenodd" clip-rule="evenodd" d="M18.6058 11.7324L18.6417 11.8336L-0.0460672 18.5228L-0.0820312 18.4217L18.6058 11.7324Z" fill="#DE39D0"/>
<path fill-rule="evenodd" clip-rule="evenodd" d="M18.6302 11.8008L18.6662 11.9019L-0.0216531 18.589L-0.0576172 18.4901L18.6302 11.8008Z" fill="#DD39D1"/>
<path fill-rule="evenodd" clip-rule="evenodd" d="M18.6536 11.8682L18.6896 11.9693L0.00178437 18.6563L-0.0341797 18.5552L18.6536 11.8682Z" fill="#DB39D1"/>
<path fill-rule="evenodd" clip-rule="evenodd" d="M18.6778 11.9355L18.7137 12.0367L0.0281515 18.7237L-0.0078125 18.6226L18.6778 11.9355Z" fill="#DA3AD1"/>
<path fill-rule="evenodd" clip-rule="evenodd" d="M18.7025 12.002L18.7384 12.1031L0.0506125 18.7901L0.0146484 18.689L18.7025 12.002Z" fill="#D83AD2"/>
<path fill-rule="evenodd" clip-rule="evenodd" d="M18.7259 12.0703L18.7619 12.1715L0.07405 18.8585L0.0380859 18.7573L18.7259 12.0703Z" fill="#D63AD2"/>
<path fill-rule="evenodd" clip-rule="evenodd" d="M18.75 12.1377L18.786 12.2388L0.100417 18.9259L0.0644531 18.8247L18.75 12.1377Z" fill="#D53AD2"/>
<path fill-rule="evenodd" clip-rule="evenodd" d="M18.7747 12.2041L18.8107 12.3053L0.122878 18.9923L0.0869141 18.8911L18.7747 12.2041Z" fill="#D33BD3"/>
<path fill-rule="evenodd" clip-rule="evenodd" d="M18.7991 12.2725L18.8351 12.3714L0.147292 19.0606L0.111328 18.9595L18.7991 12.2725Z" fill="#D13BD3"/>
<path fill-rule="evenodd" clip-rule="evenodd" d="M18.8245 12.3389L18.8605 12.4378L0.172683 19.127L0.136719 19.0259L18.8245 12.3389Z" fill="#D03BD3"/>
<path fill-rule="evenodd" clip-rule="evenodd" d="M18.8457 12.4043L18.8817 12.5054L0.19612 19.1947L0.160156 19.0936L18.8457 12.4043Z" fill="#CE3BD4"/>
<path fill-rule="evenodd" clip-rule="evenodd" d="M18.8704 12.4717L18.9064 12.5728L0.218581 19.2621L0.182617 19.161L18.8704 12.4717Z" fill="#CC3CD4"/>
<path fill-rule="evenodd" clip-rule="evenodd" d="M18.8958 12.54L18.9318 12.6412L0.243972 19.3282L0.208008 19.2293L18.8958 12.54Z" fill="#CA3CD4"/>
<path fill-rule="evenodd" clip-rule="evenodd" d="M18.918 12.6064L18.954 12.7076L0.268386 19.3946L0.232422 19.2957L18.918 12.6064Z" fill="#C93CD5"/>
<path fill-rule="evenodd" clip-rule="evenodd" d="M18.9427 12.6748L18.9787 12.776L0.290847 19.463L0.254883 19.3618L18.9427 12.6748Z" fill="#C73DD5"/>
<path fill-rule="evenodd" clip-rule="evenodd" d="M18.9691 12.7422L19.005 12.8433L0.317214 19.5304L0.28125 19.4292L18.9691 12.7422Z" fill="#C53DD5"/>
<path fill-rule="evenodd" clip-rule="evenodd" d="M18.9903 12.8096L19.0285 12.9107L0.340652 19.5977L0.304688 19.4966L18.9903 12.8096Z" fill="#C33DD6"/>
<path fill-rule="evenodd" clip-rule="evenodd" d="M19.0159 12.877L19.0519 12.9781L0.366337 19.6651L0.328125 19.564L19.0159 12.877Z" fill="#C13DD6"/>
<path fill-rule="evenodd" clip-rule="evenodd" d="M19.0404 12.9434L19.0763 13.0445L0.388503 19.7315L0.352539 19.6304L19.0404 12.9434Z" fill="#C03ED6"/>
<path fill-rule="evenodd" clip-rule="evenodd" d="M19.0638 13.0117L19.0998 13.1106L0.411941 19.7999L0.375977 19.6987L19.0638 13.0117Z" fill="#BE3ED7"/>
<path fill-rule="evenodd" clip-rule="evenodd" d="M19.0869 13.0791L19.1229 13.178L0.437331 19.8673L0.401367 19.7661L19.0869 13.0791Z" fill="#BC3ED7"/>
<path fill-rule="evenodd" clip-rule="evenodd" d="M19.1107 13.1455L19.1466 13.2467L0.458816 19.9359L0.422852 19.8348L19.1107 13.1455Z" fill="#BA3ED7"/>
<path fill-rule="evenodd" clip-rule="evenodd" d="M19.1351 13.2109L19.171 13.3121L0.48323 20.0014L0.447266 19.9002L19.1351 13.2109Z" fill="#B83FD8"/>
<path fill-rule="evenodd" clip-rule="evenodd" d="M19.1592 13.2793L19.1952 13.3804L0.509597 20.0675L0.473633 19.9686L19.1592 13.2793Z" fill="#B73FD8"/>
<path fill-rule="evenodd" clip-rule="evenodd" d="M19.1839 13.3467L19.2199 13.4478L0.532058 20.1349L0.496094 20.036L19.1839 13.3467Z" fill="#B53FD8"/>
<path fill-rule="evenodd" clip-rule="evenodd" d="M19.2073 13.4141L19.2433 13.5152L0.555495 20.2022L0.519531 20.1011L19.2073 13.4141Z" fill="#B340D8"/>
<path fill-rule="evenodd" clip-rule="evenodd" d="M19.2327 13.4824L19.2687 13.5836L0.580886 20.2706L0.544922 20.1694L19.2327 13.4824Z" fill="#B140D9"/>
<path fill-rule="evenodd" clip-rule="evenodd" d="M19.2552 13.5488L19.2912 13.65L0.605595 20.337L0.567383 20.2359L19.2552 13.5488Z" fill="#AF40D9"/>
<path fill-rule="evenodd" clip-rule="evenodd" d="M19.2796 13.6162L19.3156 13.7174L0.627761 20.4044L0.591797 20.3032L19.2796 13.6162Z" fill="#AE40D9"/>
<path fill-rule="evenodd" clip-rule="evenodd" d="M19.304 13.6826L19.34 13.7838L0.652175 20.4708L0.616211 20.3696L19.304 13.6826Z" fill="#AC41D9"/>
<path fill-rule="evenodd" clip-rule="evenodd" d="M19.3272 13.75L19.3631 13.8489L0.677566 20.5382L0.641602 20.437L19.3272 13.75Z" fill="#AA41DA"/>
<path fill-rule="evenodd" clip-rule="evenodd" d="M19.3529 13.8184L19.3888 13.9173L0.701003 20.6065L0.665039 20.5054L19.3529 13.8184Z" fill="#A841DA"/>
<path fill-rule="evenodd" clip-rule="evenodd" d="M19.3773 13.8867L19.4132 13.9856L0.725417 20.6749L0.689453 20.5737L19.3773 13.8867Z" fill="#A641DA"/>
<path fill-rule="evenodd" clip-rule="evenodd" d="M19.3994 13.9512L19.4376 14.0523L0.749831 20.7416L0.713867 20.6404L19.3994 13.9512Z" fill="#A542DA"/>
<path fill-rule="evenodd" clip-rule="evenodd" d="M19.4232 14.0176L19.4591 14.1187L0.771316 20.808L0.735352 20.7069L19.4232 14.0176Z" fill="#A342DB"/>
<path fill-rule="evenodd" clip-rule="evenodd" d="M19.4486 14.0859L19.4845 14.1871L0.796706 20.8741L0.760742 20.7752L19.4486 14.0859Z" fill="#A142DB"/>
<path fill-rule="evenodd" clip-rule="evenodd" d="M19.472 14.1533L19.508 14.2545L0.820144 20.9415L0.78418 20.8426L19.472 14.1533Z" fill="#9F43DB"/>
<path fill-rule="evenodd" clip-rule="evenodd" d="M19.4961 14.2217L19.5321 14.3228L0.846511 21.0099L0.810547 20.9087L19.4961 14.2217Z" fill="#9E43DB"/>
<path fill-rule="evenodd" clip-rule="evenodd" d="M19.5208 14.2881L19.5568 14.3892L0.868972 21.0763L0.833008 20.9751L19.5208 14.2881Z" fill="#9C43DC"/>
<path fill-rule="evenodd" clip-rule="evenodd" d="M19.5452 14.3564L19.5812 14.4576L0.893386 21.1446L0.857422 21.0435L19.5452 14.3564Z" fill="#9A43DC"/>
<path fill-rule="evenodd" clip-rule="evenodd" d="M19.5674 14.4238L19.6034 14.525L0.9178 21.212L0.881836 21.1109L19.5674 14.4238Z" fill="#9944DC"/>
<path fill-rule="evenodd" clip-rule="evenodd" d="M19.5931 14.4912L19.6291 14.5924L0.941237 21.2794L0.905273 21.1782L19.5931 14.4912Z" fill="#9744DC"/>
<path fill-rule="evenodd" clip-rule="evenodd" d="M19.6165 14.5566L19.6525 14.6555L0.964675 21.3448L0.928711 21.2437L19.6165 14.5566Z" fill="#9544DD"/>
<path fill-rule="evenodd" clip-rule="evenodd" d="M19.6419 14.625L19.6779 14.7239L0.990066 21.4132L0.954102 21.312L19.6419 14.625Z" fill="#9444DD"/>
<path fill-rule="evenodd" clip-rule="evenodd" d="M19.6651 14.6904L19.701 14.7916L1.01321 21.4809L0.979492 21.3797L19.6651 14.6904Z" fill="#9245DD"/>
<path fill-rule="evenodd" clip-rule="evenodd" d="M19.6888 14.7578L19.7248 14.859L1.03694 21.5482L1.00098 21.4471L19.6888 14.7578Z" fill="#9045DD"/>
<path fill-rule="evenodd" clip-rule="evenodd" d="M19.7132 14.8262L19.7492 14.9273L1.06135 21.6143L1.02539 21.5154L19.7132 14.8262Z" fill="#8F45DD"/>
<path fill-rule="evenodd" clip-rule="evenodd" d="M19.7373 14.8926L19.7733 14.9937L1.08772 21.6808L1.05176 21.5819L19.7373 14.8926Z" fill="#8D45DE"/>
<path fill-rule="evenodd" clip-rule="evenodd" d="M19.7611 14.96L19.797 15.0611L1.10921 21.7481L1.07324 21.647L19.7611 14.96Z" fill="#8C45DE"/>
<path fill-rule="evenodd" clip-rule="evenodd" d="M19.7855 15.0273L19.8214 15.1285L1.13362 21.8155L1.09766 21.7144L19.7855 15.0273Z" fill="#8A46DE"/>
<path fill-rule="evenodd" clip-rule="evenodd" d="M19.8096 15.0957L19.8456 15.1969L1.15999 21.8839L1.12402 21.7827L19.8096 15.0957Z" fill="#8946DE"/>
<path fill-rule="evenodd" clip-rule="evenodd" d="M19.8333 15.1631L19.8693 15.2642L1.18147 21.9513L1.14551 21.8501L19.8333 15.1631Z" fill="#8746DE"/>
<path fill-rule="evenodd" clip-rule="evenodd" d="M19.8587 15.2295L19.8947 15.3306L1.20686 22.0177L1.1709 21.9165L19.8587 15.2295Z" fill="#8646DE"/>
<path fill-rule="evenodd" clip-rule="evenodd" d="M19.8822 15.2969L19.9181 15.398L1.2303 22.085L1.19434 21.9839L19.8822 15.2969Z" fill="#8547DF"/>
<path fill-rule="evenodd" clip-rule="evenodd" d="M19.9053 15.3643L19.9413 15.4632L1.25569 22.1524L1.21973 22.0513L19.9053 15.3643Z" fill="#8347DF"/>
<path fill-rule="evenodd" clip-rule="evenodd" d="M19.93 15.4307L19.966 15.5318L1.27815 22.2211L1.24219 22.1199L19.93 15.4307Z" fill="#8247DF"/>
<path fill-rule="evenodd" clip-rule="evenodd" d="M19.9554 15.4961L19.9914 15.5972L1.30354 22.2865L1.26758 22.1854L19.9554 15.4961Z" fill="#8147DF"/>
<path fill-rule="evenodd" clip-rule="evenodd" d="M19.9776 15.5654L20.0135 15.6666L1.32796 22.3559L1.29199 22.2547L19.9776 15.5654Z" fill="#8047DF"/>
<path fill-rule="evenodd" clip-rule="evenodd" d="M20.0023 15.6318L20.0382 15.733L1.35042 22.42L1.31445 22.3211L20.0023 15.6318Z" fill="#7E48DF"/>
<path fill-rule="evenodd" clip-rule="evenodd" d="M20.0257 15.7002L20.0617 15.8013L1.37385 22.4884L1.33789 22.3872L20.0257 15.7002Z" fill="#7D48DF"/>
<path fill-rule="evenodd" clip-rule="evenodd" d="M20.0511 15.7676L20.0871 15.8687L1.39925 22.5558L1.36328 22.4546L20.0511 15.7676Z" fill="#7C48E0"/>
<path fill-rule="evenodd" clip-rule="evenodd" d="M20.0736 15.834L20.1095 15.9351L1.42395 22.6222L1.38574 22.521L20.0736 15.834Z" fill="#7B48E0"/>
<path fill-rule="evenodd" clip-rule="evenodd" d="M20.098 15.9014L20.1339 16.0025L1.44612 22.6895L1.41016 22.5884L20.098 15.9014Z" fill="#7A48E0"/>
<path fill-rule="evenodd" clip-rule="evenodd" d="M20.1234 15.9688L20.1593 16.0699L1.47151 22.7569L1.43555 22.6558L20.1234 15.9688Z" fill="#7948E0"/>
<path fill-rule="evenodd" clip-rule="evenodd" d="M20.1465 16.0381L20.1825 16.1392L1.4969 22.8263L1.46094 22.7251L20.1465 16.0381Z" fill="#7849E0"/>
<path fill-rule="evenodd" clip-rule="evenodd" d="M20.1702 16.1045L20.2062 16.2034L1.51839 22.8927L1.48242 22.7915L20.1702 16.1045Z" fill="#7749E0"/>
<path fill-rule="evenodd" clip-rule="evenodd" d="M20.1947 16.1699L20.2306 16.2711L1.5428 22.9603L1.50684 22.8592L20.1947 16.1699Z" fill="#7649E0"/>
<path fill-rule="evenodd" clip-rule="evenodd" d="M20.2178 16.2373L20.256 16.3385L1.56819 23.0277L1.53223 22.9266L20.2178 16.2373Z" fill="#7549E0"/>
<path fill-rule="evenodd" clip-rule="evenodd" d="M20.2415 16.3047L20.2775 16.4058L1.58967 23.0951L1.55371 22.994L20.2415 16.3047Z" fill="#7449E0"/>
<path fill-rule="evenodd" clip-rule="evenodd" d="M20.2659 16.3721L20.3019 16.4732L1.61409 23.1625L1.57812 23.0613L20.2659 16.3721Z" fill="#7349E0"/>
<path fill-rule="evenodd" clip-rule="evenodd" d="M20.2933 16.4404L20.3292 16.5416L1.64143 23.2286L1.60547 23.1275L20.2933 16.4404Z" fill="#7349E1"/>
<path fill-rule="evenodd" clip-rule="evenodd" d="M20.3148 16.5068L20.3507 16.608L1.66516 23.295L1.62695 23.1939L20.3148 16.5068Z" fill="#7249E1"/>
<path fill-rule="evenodd" clip-rule="evenodd" d="M20.3392 16.5742L20.3751 16.6754L1.68733 23.3624L1.65137 23.2612L20.3392 16.5742Z" fill="#7149E1"/>
<path fill-rule="evenodd" clip-rule="evenodd" d="M20.3636 16.6416L20.3996 16.7427L1.71175 23.4298L1.67578 23.3286L20.3636 16.6416Z" fill="#714AE1"/>
<path fill-rule="evenodd" clip-rule="evenodd" d="M20.3848 16.709L20.4208 16.8101L1.73518 23.4972L1.69922 23.396L20.3848 16.709Z" fill="#704AE1"/>
<path fill-rule="evenodd" clip-rule="evenodd" d="M20.4105 16.7773L20.4464 16.8785L1.75862 23.5655L1.72266 23.4644L20.4105 16.7773Z" fill="#704AE1"/>
<path fill-rule="evenodd" clip-rule="evenodd" d="M20.4349 16.8447L20.4708 16.9459L1.78303 23.6329L1.74707 23.5318L20.4349 16.8447Z" fill="#6F4AE1"/>
<path fill-rule="evenodd" clip-rule="evenodd" d="M20.458 16.9102L20.4962 17.0113L1.80842 23.7006L1.77246 23.5994L20.458 16.9102Z" fill="#6F4AE1"/>
<path fill-rule="evenodd" clip-rule="evenodd" d="M20.4837 16.9766L20.5197 17.0777L1.83186 23.767L1.7959 23.6658L20.4837 16.9766Z" fill="#6F4AE1"/>
<path fill-rule="evenodd" clip-rule="evenodd" d="M20.5072 17.0449L20.5431 17.1461L1.8553 23.8353L1.81934 23.7342L20.5072 17.0449Z" fill="#6E4AE1"/>
<path fill-rule="evenodd" clip-rule="evenodd" d="M20.5316 17.1104L20.5675 17.2115L1.87971 23.9008L1.84375 23.7996L20.5316 17.1104Z" fill="#6E4AE1"/>
<path fill-rule="evenodd" clip-rule="evenodd" d="M20.5547 17.1797L20.5907 17.2808L1.9051 23.9679L1.86914 23.869L20.5547 17.1797Z" fill="#6E4AE1"/>
<path fill-rule="evenodd" clip-rule="evenodd" d="M20.5775 17.2461L20.6134 17.3472L1.92561 24.0343L1.88965 23.9331L20.5775 17.2461Z" fill="#6E4AE1"/>
<path fill-rule="evenodd" clip-rule="evenodd" d="M20.6029 17.3135L21.0794 18.6441L2.39156 25.3312L1.91504 24.0005L20.6029 17.3135Z" fill="#6E4AE1"/>
</g>
<path d="M31.1252 14.9303C31.1252 12.6534 29.8103 11.4081 27.376 10.8709L24.9979 10.3337C23.9931 10.1202 23.1232 9.66836 23.1232 8.61642C23.1232 7.542 23.9347 6.64066 25.3642 6.64066C26.8343 6.64066 27.839 7.73531 27.9357 9.34694L30.7723 8.24105C30.1205 5.62018 28.0143 4.10521 25.326 4.10521C22.3298 4.10521 20.145 6.08097 20.145 8.82996C20.145 11.3856 21.7678 12.6534 23.8762 13.1029L26.1577 13.5974C27.3378 13.8559 28.0143 14.4358 28.0143 15.4023C28.0143 16.6476 26.9512 17.3781 25.4631 17.3781C23.6649 17.3781 22.6804 16.2835 22.6018 14.5864L19.7021 15.272C20.1607 18.1401 22.2736 19.9338 25.5216 19.9338C29.0011 19.9338 31.1275 17.8726 31.1275 14.9303H31.1252ZM57.9252 19.9338V4.0625H55.12V19.9338H57.9252ZM87.5551 19.9338C89.9354 19.9338 91.7134 18.7987 92.5136 16.7802L89.9242 15.989C89.5938 17.0882 88.7509 17.7108 87.4944 17.7108C86.0333 17.7108 85.168 16.715 84.9837 14.9078H92.7856C93.3003 11.2957 90.9941 8.45234 87.5146 8.45234C84.3453 8.45234 82.0593 10.8597 82.0593 14.1616C82.0593 17.6276 84.2621 19.9315 87.5551 19.9315V19.9338ZM87.4517 10.572C88.8093 10.572 89.6747 11.5475 89.7579 13.0827H85.0241C85.2714 11.4418 86.1143 10.572 87.4539 10.572H87.4517ZM75.8915 14.9753C79.3575 14.9753 81.5154 13.0894 81.5154 9.783C81.5154 6.47657 79.3575 4.71659 75.8915 4.71659H70.6452V19.936H73.655V14.9753H75.8915ZM75.8713 7.42962C77.5751 7.42962 78.5236 8.29949 78.5236 9.80323C78.5236 11.3092 77.5728 12.2623 75.8713 12.2623H73.6527V7.42962H75.8713ZM68.5998 16.1846C68.5998 14.5887 67.6243 13.5952 65.7069 13.1793L63.8098 12.786C62.9264 12.5994 62.5196 12.3297 62.5196 11.6666C62.5196 10.9631 63.1467 10.5675 64.0863 10.5675C65.1742 10.5675 65.8912 11.2305 65.9834 12.3072L68.3503 11.6936C67.9434 9.67511 66.3363 8.45234 64.0863 8.45234C61.6362 8.45234 60.0696 9.8819 60.0696 11.9341C60.0696 13.6536 61.1372 14.7528 62.9062 15.1034L64.6752 15.4765C65.6148 15.6833 66.0194 15.9733 66.0194 16.6791C66.0194 17.4658 65.2641 17.8187 64.2684 17.8187C62.9961 17.8187 62.1307 17.0926 62.1128 15.953L59.7504 16.5981C60.1572 18.6796 61.6834 19.9315 64.2324 19.9315C67.0331 19.9315 68.5998 18.502 68.5998 16.1801V16.1846ZM52.5553 19.936V4.06475H49.7501V19.936H52.5553ZM47.3473 6.07423C47.3473 5.04251 46.637 4.30526 45.6098 4.30526C44.6005 4.30526 43.8902 5.04251 43.8902 6.07423C43.8902 7.06323 44.6005 7.80274 45.6098 7.80274C46.637 7.80274 47.3473 7.06548 47.3473 6.07423ZM46.9359 19.936V8.6861H44.3398V19.936H46.9359ZM35.7713 19.936V14.6786L39.887 19.936H43.4564L38.4731 14.0447L42.9304 8.61867H39.7027L35.7691 13.4086V4.71884H32.9661V19.9383H35.7691L35.7713 19.936Z" fill="white"/>
</svg>
