<svg width="17" height="24" viewBox="0 0 17 24" fill="none" xmlns="http://www.w3.org/2000/svg">
<mask id="mask0_11238_4383" style="mask-type:luminance" maskUnits="userSpaceOnUse" x="0" y="0" width="17" height="24">
<path d="M12.3087 0.143555C13.619 0.923113 14.6962 2.05803 15.4047 3.41282C13.5613 7.05964 9.77675 9.57377 5.43029 9.57377C10.6607 9.57377 15.0827 13.2206 16.2775 18.0956C16.1887 18.9085 15.9799 19.6858 15.669 20.4121C14.3786 19.7191 12.9039 19.326 11.3381 19.326C7.96665 19.326 5.02163 21.145 3.42919 23.8568C2.2232 22.9928 1.25707 21.8068 0.664072 20.4298C2.59632 17.0806 6.21874 14.813 10.3431 14.813C5.68348 14.813 1.66795 11.9213 0 7.84142V7.16625C0 6.34893 0.122154 5.56049 0.348694 4.81424C1.45252 5.28509 2.66739 5.54716 3.94446 5.54716C7.66682 5.54716 10.8695 3.33064 12.3042 0.143555L12.3087 0.143555Z" fill="white"/>
</mask>
<g mask="url(#mask0_11238_4383)">
<path fill-rule="evenodd" clip-rule="evenodd" d="M14.0167 -0.467773L14.3321 0.409508L-4.13313 7.0191L-4.44629 6.1396L14.0167 -0.467773Z" fill="#FFD374"/>
<path fill-rule="evenodd" clip-rule="evenodd" d="M14.3207 0.375977L14.3562 0.47592L-4.109 7.08551L-4.14453 6.98557L14.3207 0.375977Z" fill="#FFD374"/>
<path fill-rule="evenodd" clip-rule="evenodd" d="M14.3429 0.443359L14.3784 0.543303L-4.08458 7.15067L-4.12012 7.05295L14.3429 0.443359Z" fill="#FFD374"/>
<path fill-rule="evenodd" clip-rule="evenodd" d="M14.3676 0.511719L14.4031 0.611662L-4.06212 7.21903L-4.09766 7.12131L14.3676 0.511719Z" fill="#FFD374"/>
<path fill-rule="evenodd" clip-rule="evenodd" d="M14.392 0.578125L14.4275 0.678068L-4.03771 7.28544L-4.07324 7.1855L14.392 0.578125Z" fill="#FFD374"/>
<path fill-rule="evenodd" clip-rule="evenodd" d="M14.4142 0.643555L14.4497 0.743498L-4.01329 7.35087L-4.04883 7.25093L14.4142 0.643555Z" fill="#FFD274"/>
<path fill-rule="evenodd" clip-rule="evenodd" d="M14.4388 0.709961L14.4744 0.809904L-3.99083 7.41727L-4.02637 7.31733L14.4388 0.709961Z" fill="#FFD274"/>
<path fill-rule="evenodd" clip-rule="evenodd" d="M14.4628 0.776367L14.4983 0.876311L-3.96691 7.48368L-4.00244 7.38374L14.4628 0.776367Z" fill="#FFD274"/>
<path fill-rule="evenodd" clip-rule="evenodd" d="M14.4872 0.844727L14.5227 0.94467L-3.94249 7.55204L-3.97803 7.4521L14.4872 0.844727Z" fill="#FFD175"/>
<path fill-rule="evenodd" clip-rule="evenodd" d="M14.5094 0.910156L14.5449 1.00788L-3.91808 7.61747L-3.95361 7.51753L14.5094 0.910156Z" fill="#FFD175"/>
<path fill-rule="evenodd" clip-rule="evenodd" d="M14.5341 0.976562L14.5696 1.07428L-3.89562 7.68388L-3.93115 7.58393L14.5341 0.976562Z" fill="#FFD175"/>
<path fill-rule="evenodd" clip-rule="evenodd" d="M14.5585 1.04102L14.594 1.14096L-3.8712 7.75055L-3.90674 7.65061L14.5585 1.04102Z" fill="#FFD075"/>
<path fill-rule="evenodd" clip-rule="evenodd" d="M14.5807 1.10742L14.6162 1.20737L-3.84679 7.81696L-3.88232 7.71701L14.5807 1.10742Z" fill="#FFCF75"/>
<path fill-rule="evenodd" clip-rule="evenodd" d="M14.6054 1.17383L14.6409 1.27377L-3.82433 7.88336L-3.85986 7.78342L14.6054 1.17383Z" fill="#FFCF76"/>
<path fill-rule="evenodd" clip-rule="evenodd" d="M14.6298 1.24023L14.6653 1.34018L-3.79991 7.94755L-3.83545 7.84983L14.6298 1.24023Z" fill="#FFCE76"/>
<path fill-rule="evenodd" clip-rule="evenodd" d="M14.6537 1.30762L14.6892 1.40756L-3.77599 8.01493L-3.81152 7.91499L14.6537 1.30762Z" fill="#FFCE76"/>
<path fill-rule="evenodd" clip-rule="evenodd" d="M14.6762 1.37402L14.7117 1.47397L-3.75131 8.08134L-3.78906 7.98139L14.6762 1.37402Z" fill="#FFCD76"/>
<path fill-rule="evenodd" clip-rule="evenodd" d="M14.7006 1.44141L14.7361 1.54135L-3.72911 8.14872L-3.76465 8.04878L14.7006 1.44141Z" fill="#FFCC77"/>
<path fill-rule="evenodd" clip-rule="evenodd" d="M14.725 1.50781L14.7605 1.60776L-3.7047 8.21513L-3.74023 8.11518L14.725 1.50781Z" fill="#FFCB77"/>
<path fill-rule="evenodd" clip-rule="evenodd" d="M14.7467 1.57422L14.7822 1.67416L-3.68077 8.28153L-3.71631 8.18159L14.7467 1.57422Z" fill="#FFCA77"/>
<path fill-rule="evenodd" clip-rule="evenodd" d="M14.7719 1.63965L14.8074 1.73737L-3.65782 8.34696L-3.69336 8.24702L14.7719 1.63965Z" fill="#FFCA78"/>
<path fill-rule="evenodd" clip-rule="evenodd" d="M14.7963 1.70703L14.8318 1.80475L-3.63341 8.41435L-3.66895 8.3144L14.7963 1.70703Z" fill="#FFC978"/>
<path fill-rule="evenodd" clip-rule="evenodd" d="M14.818 1.77344L14.8535 1.87116L-3.60948 8.48075L-3.64502 8.38081L14.818 1.77344Z" fill="#FFC878"/>
<path fill-rule="evenodd" clip-rule="evenodd" d="M14.8431 1.83887L14.8787 1.93881L-3.58653 8.5484L-3.62207 8.44846L14.8431 1.83887Z" fill="#FFC779"/>
<path fill-rule="evenodd" clip-rule="evenodd" d="M14.8666 1.90527L14.9021 2.00522L-3.5631 8.61481L-3.59863 8.51486L14.8666 1.90527Z" fill="#FFC679"/>
<path fill-rule="evenodd" clip-rule="evenodd" d="M14.8915 1.97168L14.927 2.07162L-3.53819 8.67899L-3.57373 8.58127L14.8915 1.97168Z" fill="#FFC579"/>
<path fill-rule="evenodd" clip-rule="evenodd" d="M14.9135 2.03809L14.949 2.13803L-3.514 8.7454L-3.55176 8.64768L14.9135 2.03809Z" fill="#FFC47A"/>
<path fill-rule="evenodd" clip-rule="evenodd" d="M14.9384 2.10449L14.9739 2.20444L-3.49132 8.81181L-3.52686 8.71186L14.9384 2.10449Z" fill="#FFC27A"/>
<path fill-rule="evenodd" clip-rule="evenodd" d="M14.9628 2.1709L14.9983 2.27084L-3.46691 8.87821L-3.50244 8.77827L14.9628 2.1709Z" fill="#FFC17B"/>
<path fill-rule="evenodd" clip-rule="evenodd" d="M14.9845 2.2373L15.02 2.33725L-3.44298 8.94462L-3.47852 8.84468L14.9845 2.2373Z" fill="#FFC07B"/>
<path fill-rule="evenodd" clip-rule="evenodd" d="M15.0092 2.30469L15.0447 2.40463L-3.42052 9.012L-3.45605 8.91206L15.0092 2.30469Z" fill="#FFBF7C"/>
<path fill-rule="evenodd" clip-rule="evenodd" d="M15.0336 2.37109L15.0691 2.47104L-3.39611 9.07841L-3.43164 8.97846L15.0336 2.37109Z" fill="#FFBE7C"/>
<path fill-rule="evenodd" clip-rule="evenodd" d="M15.0558 2.43848L15.0935 2.5362L-3.37169 9.14579L-3.40723 9.04585L15.0558 2.43848Z" fill="#FFBC7D"/>
<path fill-rule="evenodd" clip-rule="evenodd" d="M15.08 2.50391L15.1155 2.60163L-3.34972 9.21122L-3.38525 9.11128L15.08 2.50391Z" fill="#FFBB7D"/>
<path fill-rule="evenodd" clip-rule="evenodd" d="M15.1049 2.56934L15.1404 2.66928L-3.32482 9.27887L-3.36035 9.17893L15.1049 2.56934Z" fill="#FFBA7E"/>
<path fill-rule="evenodd" clip-rule="evenodd" d="M15.1288 2.63574L15.1643 2.73569L-3.30089 9.34528L-3.33643 9.24533L15.1288 2.63574Z" fill="#FFB97E"/>
<path fill-rule="evenodd" clip-rule="evenodd" d="M15.1505 2.70215L15.186 2.80209L-3.27696 9.40946L-3.3125 9.31174L15.1505 2.70215Z" fill="#FFB77F"/>
<path fill-rule="evenodd" clip-rule="evenodd" d="M15.1757 2.76855L15.2112 2.8685L-3.25402 9.47587L-3.28955 9.37815L15.1757 2.76855Z" fill="#FFB67F"/>
<path fill-rule="evenodd" clip-rule="evenodd" d="M15.2001 2.83398L15.2356 2.93393L-3.2296 9.5413L-3.26514 9.44135L15.2001 2.83398Z" fill="#FFB480"/>
<path fill-rule="evenodd" clip-rule="evenodd" d="M15.2223 2.90234L15.2578 3.00229L-3.20519 9.60966L-3.24072 9.50971L15.2223 2.90234Z" fill="#FFB380"/>
<path fill-rule="evenodd" clip-rule="evenodd" d="M15.247 2.96875L15.2825 3.06869L-3.18273 9.67606L-3.21826 9.57612L15.247 2.96875Z" fill="#FFB181"/>
<path fill-rule="evenodd" clip-rule="evenodd" d="M15.2714 3.03516L15.3069 3.1351L-3.15831 9.74247L-3.19385 9.64253L15.2714 3.03516Z" fill="#FFB081"/>
<path fill-rule="evenodd" clip-rule="evenodd" d="M15.2953 3.10156L15.3308 3.20151L-3.13439 9.80888L-3.16992 9.70893L15.2953 3.10156Z" fill="#FFAE82"/>
<path fill-rule="evenodd" clip-rule="evenodd" d="M15.318 3.16895L15.3535 3.26889L-3.10948 9.87626L-3.14502 9.77632L15.318 3.16895Z" fill="#FFAD83"/>
<path fill-rule="evenodd" clip-rule="evenodd" d="M15.3427 3.23535L15.3782 3.33307L-3.08702 9.94267L-3.12256 9.84272L15.3427 3.23535Z" fill="#FFAB83"/>
<path fill-rule="evenodd" clip-rule="evenodd" d="M15.3666 3.29883L15.4021 3.39877L-3.0631 10.0084L-3.09863 9.90842L15.3666 3.29883Z" fill="#FFAA84"/>
<path fill-rule="evenodd" clip-rule="evenodd" d="M15.3888 3.36621L15.4243 3.46615L-3.03868 10.0757L-3.07422 9.9758L15.3888 3.36621Z" fill="#FFA885"/>
<path fill-rule="evenodd" clip-rule="evenodd" d="M15.4135 3.43164L15.449 3.53158L-3.01622 10.1412L-3.05176 10.0412L15.4135 3.43164Z" fill="#FFA785"/>
<path fill-rule="evenodd" clip-rule="evenodd" d="M15.4379 3.5L15.4734 3.59994L-2.99181 10.2073L-3.02734 10.1096L15.4379 3.5Z" fill="#FFA586"/>
<path fill-rule="evenodd" clip-rule="evenodd" d="M15.4601 3.56543L15.4978 3.66537L-2.96739 10.2727L-3.00293 10.1728L15.4601 3.56543Z" fill="#FFA386"/>
<path fill-rule="evenodd" clip-rule="evenodd" d="M15.4843 3.63281L15.5198 3.73276L-2.94542 10.3401L-2.98096 10.2402L15.4843 3.63281Z" fill="#FFA287"/>
<path fill-rule="evenodd" clip-rule="evenodd" d="M15.5087 3.69824L15.5442 3.79819L-2.92101 10.4056L-2.95654 10.3056L15.5087 3.69824Z" fill="#FFA088"/>
<path fill-rule="evenodd" clip-rule="evenodd" d="M15.5336 3.76562L15.5691 3.86557L-2.89611 10.4729L-2.93164 10.373L15.5336 3.76562Z" fill="#FF9E88"/>
<path fill-rule="evenodd" clip-rule="evenodd" d="M15.5553 3.83301L15.5908 3.93295L-2.87218 10.5403L-2.90771 10.4404L15.5553 3.83301Z" fill="#FF9D89"/>
<path fill-rule="evenodd" clip-rule="evenodd" d="M15.58 3.89941L15.6155 3.99936L-2.84972 10.6067L-2.88525 10.5068L15.58 3.89941Z" fill="#FF9B8A"/>
<path fill-rule="evenodd" clip-rule="evenodd" d="M15.6044 3.96582L15.6399 4.06354L-2.8253 10.6731L-2.86084 10.5732L15.6044 3.96582Z" fill="#FF998B"/>
<path fill-rule="evenodd" clip-rule="evenodd" d="M15.6271 4.03027L15.6626 4.13022L-2.8004 10.7398L-2.83594 10.6399L15.6271 4.03027Z" fill="#FF988B"/>
<path fill-rule="evenodd" clip-rule="evenodd" d="M15.6512 4.09668L15.6868 4.19662L-2.77843 10.8062L-2.81396 10.7063L15.6512 4.09668Z" fill="#FF968C"/>
<path fill-rule="evenodd" clip-rule="evenodd" d="M15.6757 4.16406L15.7112 4.26401L-2.75402 10.8736L-2.78955 10.7737L15.6757 4.16406Z" fill="#FF948D"/>
<path fill-rule="evenodd" clip-rule="evenodd" d="M15.7001 4.23047L15.7356 4.33041L-2.7296 10.9378L-2.76514 10.8401L15.7001 4.23047Z" fill="#FF938D"/>
<path fill-rule="evenodd" clip-rule="evenodd" d="M15.722 4.29688L15.7576 4.39682L-2.70541 11.0042L-2.74316 10.9065L15.722 4.29688Z" fill="#FF918E"/>
<path fill-rule="evenodd" clip-rule="evenodd" d="M15.7465 4.36328L15.782 4.46322L-2.68321 11.0706L-2.71875 10.9707L15.7465 4.36328Z" fill="#FF8F8F"/>
<path fill-rule="evenodd" clip-rule="evenodd" d="M15.7709 4.43066L15.8064 4.53061L-2.6588 11.138L-2.69434 11.038L15.7709 4.43066Z" fill="#FF8D90"/>
<path fill-rule="evenodd" clip-rule="evenodd" d="M15.7931 4.49805L15.8286 4.59799L-2.63439 11.2054L-2.66992 11.1054L15.7931 4.49805Z" fill="#FF8C90"/>
<path fill-rule="evenodd" clip-rule="evenodd" d="M15.8178 4.56348L15.8533 4.66342L-2.61193 11.2708L-2.64746 11.1708L15.8178 4.56348Z" fill="#FF8A91"/>
<path fill-rule="evenodd" clip-rule="evenodd" d="M15.8422 4.62988L15.8777 4.72983L-2.58751 11.3372L-2.62305 11.2373L15.8422 4.62988Z" fill="#FF8892"/>
<path fill-rule="evenodd" clip-rule="evenodd" d="M15.8644 4.69629L15.9021 4.79623L-2.5631 11.4036L-2.59863 11.3037L15.8644 4.69629Z" fill="#FF8693"/>
<path fill-rule="evenodd" clip-rule="evenodd" d="M15.8886 4.76074L15.9241 4.86069L-2.54112 11.4703L-2.57666 11.3703L15.8886 4.76074Z" fill="#FF8593"/>
<path fill-rule="evenodd" clip-rule="evenodd" d="M15.9135 4.82715L15.949 4.92709L-2.51622 11.5367L-2.55176 11.4367L15.9135 4.82715Z" fill="#FF8394"/>
<path fill-rule="evenodd" clip-rule="evenodd" d="M15.9379 4.89355L15.9734 4.9935L-2.49181 11.6031L-2.52734 11.5031L15.9379 4.89355Z" fill="#FF8195"/>
<path fill-rule="evenodd" clip-rule="evenodd" d="M15.9594 4.95996L15.9949 5.0599L-2.4681 11.6695L-2.50586 11.5696L15.9594 4.95996Z" fill="#FF7F96"/>
<path fill-rule="evenodd" clip-rule="evenodd" d="M15.9843 5.02734L16.0198 5.12729L-2.44542 11.7347L-2.48096 11.6369L15.9843 5.02734Z" fill="#FF7D96"/>
<path fill-rule="evenodd" clip-rule="evenodd" d="M16.0087 5.09375L16.0442 5.19369L-2.42101 11.8011L-2.45654 11.7011L16.0087 5.09375Z" fill="#FF7C97"/>
<path fill-rule="evenodd" clip-rule="evenodd" d="M16.0309 5.16016L16.0664 5.2601L-2.39659 11.8675L-2.43213 11.7675L16.0309 5.16016Z" fill="#FF7A98"/>
<path fill-rule="evenodd" clip-rule="evenodd" d="M16.0555 5.22754L16.0911 5.32748L-2.37413 11.9349L-2.40967 11.8349L16.0555 5.22754Z" fill="#FF7899"/>
<path fill-rule="evenodd" clip-rule="evenodd" d="M16.08 5.29395L16.1155 5.39389L-2.34972 12.0013L-2.38525 11.9013L16.08 5.29395Z" fill="#FF7699"/>
<path fill-rule="evenodd" clip-rule="evenodd" d="M16.1017 5.36133L16.1394 5.46127L-2.32579 12.0686L-2.36133 11.9687L16.1017 5.36133Z" fill="#FF759A"/>
<path fill-rule="evenodd" clip-rule="evenodd" d="M16.1268 5.42773L16.1624 5.52768L-2.30062 12.135L-2.33838 12.0351L16.1268 5.42773Z" fill="#FF739B"/>
<path fill-rule="evenodd" clip-rule="evenodd" d="M16.1508 5.49316L16.1863 5.59089L-2.27892 12.2005L-2.31445 12.1005L16.1508 5.49316Z" fill="#FF719C"/>
<path fill-rule="evenodd" clip-rule="evenodd" d="M16.1752 5.55762L16.2107 5.65756L-2.2545 12.2672L-2.29004 12.1672L16.1752 5.55762Z" fill="#FF709C"/>
<path fill-rule="evenodd" clip-rule="evenodd" d="M16.1974 5.62598L16.2329 5.72592L-2.23009 12.3355L-2.26562 12.2356L16.1974 5.62598Z" fill="#FF6E9D"/>
<path fill-rule="evenodd" clip-rule="evenodd" d="M16.222 5.69141L16.2576 5.79135L-2.20763 12.4009L-2.24316 12.301L16.222 5.69141Z" fill="#FF6C9E"/>
<path fill-rule="evenodd" clip-rule="evenodd" d="M16.2465 5.75879L16.282 5.85873L-2.18321 12.4661L-2.21875 12.3684L16.2465 5.75879Z" fill="#FF6A9F"/>
<path fill-rule="evenodd" clip-rule="evenodd" d="M16.2682 5.8252L16.3059 5.92514L-2.15929 12.5325L-2.19482 12.4326L16.2682 5.8252Z" fill="#FF69A0"/>
<path fill-rule="evenodd" clip-rule="evenodd" d="M16.2929 5.8916L16.3284 5.99155L-2.13683 12.5989L-2.17236 12.499L16.2929 5.8916Z" fill="#FF67A0"/>
<path fill-rule="evenodd" clip-rule="evenodd" d="M16.3173 5.95801L16.3528 6.05795L-2.11241 12.6653L-2.14795 12.5654L16.3173 5.95801Z" fill="#FF65A1"/>
<path fill-rule="evenodd" clip-rule="evenodd" d="M16.3422 6.02539L16.3777 6.12533L-2.08751 12.7327L-2.12305 12.6328L16.3422 6.02539Z" fill="#FF64A2"/>
<path fill-rule="evenodd" clip-rule="evenodd" d="M16.3639 6.0918L16.3994 6.19174L-2.06359 12.7991L-2.09912 12.6992L16.3639 6.0918Z" fill="#FF62A3"/>
<path fill-rule="evenodd" clip-rule="evenodd" d="M16.3886 6.1582L16.4241 6.25815L-2.04112 12.8655L-2.07666 12.7656L16.3886 6.1582Z" fill="#FF61A3"/>
<path fill-rule="evenodd" clip-rule="evenodd" d="M16.4125 6.22461L16.448 6.32233L-2.0172 12.9319L-2.05273 12.832L16.4125 6.22461Z" fill="#FF5FA4"/>
<path fill-rule="evenodd" clip-rule="evenodd" d="M16.4347 6.29102L16.4702 6.38874L-1.99278 12.9983L-2.02832 12.8984L16.4347 6.29102Z" fill="#FF5DA5"/>
<path fill-rule="evenodd" clip-rule="evenodd" d="M16.4589 6.35645L16.4944 6.45639L-1.97081 13.066L-2.00635 12.966L16.4589 6.35645Z" fill="#FF5CA6"/>
<path fill-rule="evenodd" clip-rule="evenodd" d="M16.4838 6.42188L16.5193 6.52182L-1.94591 13.1314L-1.98145 13.0315L16.4838 6.42188Z" fill="#FF5AA6"/>
<path fill-rule="evenodd" clip-rule="evenodd" d="M16.5087 6.48926L16.5442 6.5892L-1.92101 13.1966L-1.95654 13.0988L16.5087 6.48926Z" fill="#FF59A7"/>
<path fill-rule="evenodd" clip-rule="evenodd" d="M16.5306 6.55664L16.5662 6.65658L-1.89681 13.264L-1.93457 13.1662L16.5306 6.55664Z" fill="#FF57A8"/>
<path fill-rule="evenodd" clip-rule="evenodd" d="M16.5551 6.62305L16.5906 6.72299L-1.87462 13.3304L-1.91016 13.2304L16.5551 6.62305Z" fill="#FF56A9"/>
<path fill-rule="evenodd" clip-rule="evenodd" d="M16.5795 6.68945L16.615 6.7894L-1.85021 13.3968L-1.88574 13.2968L16.5795 6.68945Z" fill="#FF54A9"/>
<path fill-rule="evenodd" clip-rule="evenodd" d="M16.6012 6.75488L16.6367 6.85483L-1.82628 13.4622L-1.86182 13.3623L16.6012 6.75488Z" fill="#FF53AA"/>
<path fill-rule="evenodd" clip-rule="evenodd" d="M16.6259 6.82129L16.6614 6.92123L-1.80382 13.5286L-1.83936 13.4287L16.6259 6.82129Z" fill="#FF51AB"/>
<path fill-rule="evenodd" clip-rule="evenodd" d="M16.6503 6.88867L16.6858 6.98862L-1.77941 13.596L-1.81494 13.496L16.6503 6.88867Z" fill="#FF50AC"/>
<path fill-rule="evenodd" clip-rule="evenodd" d="M16.6725 6.95508L16.708 7.0528L-1.75499 13.6624L-1.79053 13.5624L16.6725 6.95508Z" fill="#FF4FAC"/>
<path fill-rule="evenodd" clip-rule="evenodd" d="M16.6971 7.02148L16.7327 7.11921L-1.73253 13.7288L-1.76807 13.6289L16.6971 7.02148Z" fill="#FF4DAD"/>
<path fill-rule="evenodd" clip-rule="evenodd" d="M16.7216 7.08594L16.7571 7.18588L-1.70812 13.7955L-1.74365 13.6955L16.7216 7.08594Z" fill="#FF4CAE"/>
<path fill-rule="evenodd" clip-rule="evenodd" d="M16.746 7.15332L16.7815 7.25326L-1.6837 13.8629L-1.71924 13.7629L16.746 7.15332Z" fill="#FF4BAE"/>
<path fill-rule="evenodd" clip-rule="evenodd" d="M16.7679 7.21973L16.8035 7.31967L-1.65951 13.927L-1.69727 13.8293L16.7679 7.21973Z" fill="#FF49AF"/>
<path fill-rule="evenodd" clip-rule="evenodd" d="M16.7924 7.28613L16.8279 7.38608L-1.63732 13.9934L-1.67285 13.8957L16.7924 7.28613Z" fill="#FF48B0"/>
<path fill-rule="evenodd" clip-rule="evenodd" d="M16.8168 7.35254L16.8523 7.45248L-1.6129 14.0599L-1.64844 13.9599L16.8168 7.35254Z" fill="#FF47B1"/>
<path fill-rule="evenodd" clip-rule="evenodd" d="M16.839 7.41895L16.8745 7.51889L-1.58849 14.1263L-1.62402 14.0263L16.839 7.41895Z" fill="#FF46B1"/>
<path fill-rule="evenodd" clip-rule="evenodd" d="M16.8637 7.48633L16.8992 7.58627L-1.56603 14.1936L-1.60156 14.0937L16.8637 7.48633Z" fill="#FF45B2"/>
<path fill-rule="evenodd" clip-rule="evenodd" d="M16.8886 7.55176L16.9241 7.6517L-1.54112 14.2591L-1.57666 14.1591L16.8886 7.55176Z" fill="#FF44B3"/>
<path fill-rule="evenodd" clip-rule="evenodd" d="M16.9103 7.61914L16.948 7.71908L-1.5172 14.3265L-1.55273 14.2265L16.9103 7.61914Z" fill="#FF42B3"/>
<path fill-rule="evenodd" clip-rule="evenodd" d="M16.9349 7.68457L16.9705 7.78229L-1.49252 14.3919L-1.53027 14.2919L16.9349 7.68457Z" fill="#FF41B4"/>
<path fill-rule="evenodd" clip-rule="evenodd" d="M16.9594 7.75195L16.9949 7.84968L-1.47032 14.4593L-1.50586 14.3593L16.9594 7.75195Z" fill="#FF40B5"/>
<path fill-rule="evenodd" clip-rule="evenodd" d="M16.9833 7.81934L17.0188 7.91706L-1.4464 14.5266L-1.48193 14.4267L16.9833 7.81934Z" fill="#FF3FB5"/>
<path fill-rule="evenodd" clip-rule="evenodd" d="M17.006 7.88379L17.0415 7.98373L-1.4215 14.5933L-1.45703 14.4934L17.006 7.88379Z" fill="#FF3EB6"/>
<path fill-rule="evenodd" clip-rule="evenodd" d="M17.0302 7.9502L17.0657 8.05014L-1.39952 14.6597L-1.43506 14.5598L17.0302 7.9502Z" fill="#FF3EB6"/>
<path fill-rule="evenodd" clip-rule="evenodd" d="M17.0546 8.0166L17.0901 8.11655L-1.37511 14.7239L-1.41064 14.6262L17.0546 8.0166Z" fill="#FF3DB7"/>
<path fill-rule="evenodd" clip-rule="evenodd" d="M17.0768 8.08398L17.1123 8.18393L-1.35069 14.7913L-1.38623 14.6936L17.0768 8.08398Z" fill="#FF3CB8"/>
<path fill-rule="evenodd" clip-rule="evenodd" d="M17.101 8.15039L17.1365 8.25033L-1.32872 14.8577L-1.36426 14.7578L17.101 8.15039Z" fill="#FF3BB8"/>
<path fill-rule="evenodd" clip-rule="evenodd" d="M17.1259 8.2168L17.1614 8.31674L-1.30382 14.9241L-1.33936 14.8242L17.1259 8.2168Z" fill="#FF3AB9"/>
<path fill-rule="evenodd" clip-rule="evenodd" d="M17.1476 8.28223L17.1853 8.38217L-1.27989 14.9895L-1.31543 14.8896L17.1476 8.28223Z" fill="#FF3AB9"/>
<path fill-rule="evenodd" clip-rule="evenodd" d="M17.1725 8.34961L17.208 8.44955L-1.25499 15.0569L-1.29053 14.957L17.1725 8.34961Z" fill="#FF39BA"/>
<path fill-rule="evenodd" clip-rule="evenodd" d="M17.1967 8.41797L17.2322 8.51791L-1.23302 15.1253L-1.26855 15.0253L17.1967 8.41797Z" fill="#FF38BB"/>
<path fill-rule="evenodd" clip-rule="evenodd" d="M17.2216 8.4834L17.2571 8.58112L-1.20812 15.1907L-1.24365 15.0908L17.2216 8.4834Z" fill="#FF38BB"/>
<path fill-rule="evenodd" clip-rule="evenodd" d="M17.2433 8.5498L17.2788 8.64753L-1.18419 15.2571L-1.21973 15.1572L17.2433 8.5498Z" fill="#FF37BC"/>
<path fill-rule="evenodd" clip-rule="evenodd" d="M17.2679 8.61426L17.3035 8.7142L-1.16173 15.3238L-1.19727 15.2238L17.2679 8.61426Z" fill="#FF37BC"/>
<path fill-rule="evenodd" clip-rule="evenodd" d="M17.2919 8.68164L17.3274 8.78158L-1.1378 15.3912L-1.17334 15.2912L17.2919 8.68164Z" fill="#FF36BD"/>
<path fill-rule="evenodd" clip-rule="evenodd" d="M17.3146 8.74707L17.3523 8.84701L-1.1129 15.4544L-1.14844 15.3567L17.3146 8.74707Z" fill="#FF36BD"/>
<path fill-rule="evenodd" clip-rule="evenodd" d="M17.3383 8.81348L17.3738 8.91342L-1.09142 15.5208L-1.12695 15.4231L17.3383 8.81348Z" fill="#FF35BE"/>
<path fill-rule="evenodd" clip-rule="evenodd" d="M17.3632 8.88086L17.3987 8.9808L-1.06652 15.5882L-1.10205 15.4882L17.3632 8.88086Z" fill="#FF35BE"/>
<path fill-rule="evenodd" clip-rule="evenodd" d="M17.3881 8.94727L17.4236 9.04721L-1.04161 15.6546L-1.07715 15.5546L17.3881 8.94727Z" fill="#FF35BF"/>
<path fill-rule="evenodd" clip-rule="evenodd" d="M17.4103 9.01465L17.4458 9.11459L-1.0172 15.722L-1.05273 15.622L17.4103 9.01465Z" fill="#FF34BF"/>
<path fill-rule="evenodd" clip-rule="evenodd" d="M17.4345 9.08105L17.47 9.181L-0.995226 15.7884L-1.03076 15.6884L17.4345 9.08105Z" fill="#FF34C0"/>
<path fill-rule="evenodd" clip-rule="evenodd" d="M17.4589 9.14746L17.4944 9.2474L-0.970812 15.8548L-1.00635 15.7548L17.4589 9.14746Z" fill="#FF34C0"/>
<path fill-rule="evenodd" clip-rule="evenodd" d="M17.4811 9.21484L17.5166 9.31479L-0.946398 15.9222L-0.981934 15.8222L17.4811 9.21484Z" fill="#FF34C1"/>
<path fill-rule="evenodd" clip-rule="evenodd" d="M17.5053 9.28027L17.5408 9.378L-0.924425 15.9876L-0.959961 15.8876L17.5053 9.28027Z" fill="#FF34C1"/>
<path fill-rule="evenodd" clip-rule="evenodd" d="M17.5302 9.34473L17.5657 9.44467L-0.899523 16.0543L-0.935059 15.9543L17.5302 9.34473Z" fill="#FF34C1"/>
<path fill-rule="evenodd" clip-rule="evenodd" d="M17.5546 9.41113L17.5901 9.51108L-0.875109 16.1207L-0.910645 16.0207L17.5546 9.41113Z" fill="#FF34C2"/>
<path fill-rule="evenodd" clip-rule="evenodd" d="M17.5765 9.47754L17.6121 9.57748L-0.850915 16.1871L-0.888672 16.0871L17.5765 9.47754Z" fill="#FF34C2"/>
<path fill-rule="evenodd" clip-rule="evenodd" d="M17.601 9.54492L17.6365 9.64486L-0.828722 16.2522L-0.864258 16.1545L17.601 9.54492Z" fill="#FF34C3"/>
<path fill-rule="evenodd" clip-rule="evenodd" d="M17.6259 9.61133L17.6614 9.71127L-0.80382 16.3186L-0.839355 16.2187L17.6259 9.61133Z" fill="#FE34C3"/>
<path fill-rule="evenodd" clip-rule="evenodd" d="M17.6476 9.67871L17.6831 9.77865L-0.779894 16.386L-0.81543 16.2861L17.6476 9.67871Z" fill="#FE34C4"/>
<path fill-rule="evenodd" clip-rule="evenodd" d="M17.6722 9.74512L17.7078 9.84506L-0.757433 16.4524L-0.792969 16.3525L17.6722 9.74512Z" fill="#FE34C4"/>
<path fill-rule="evenodd" clip-rule="evenodd" d="M17.6962 9.81152L17.7317 9.91147L-0.733507 16.5188L-0.769043 16.4189L17.6962 9.81152Z" fill="#FD34C5"/>
<path fill-rule="evenodd" clip-rule="evenodd" d="M17.7189 9.87793L17.7544 9.97787L-0.708605 16.5852L-0.744141 16.4853L17.7189 9.87793Z" fill="#FD34C5"/>
<path fill-rule="evenodd" clip-rule="evenodd" d="M17.743 9.94531L17.7786 10.0453L-0.684411 16.6526L-0.722168 16.5527L17.743 9.94531Z" fill="#FC34C5"/>
<path fill-rule="evenodd" clip-rule="evenodd" d="M17.768 10.0117L17.8035 10.1094L-0.66173 16.719L-0.697266 16.6191L17.768 10.0117Z" fill="#FC35C6"/>
<path fill-rule="evenodd" clip-rule="evenodd" d="M17.7924 10.0752L17.8279 10.1751L-0.637316 16.7847L-0.672852 16.6848L17.7924 10.0752Z" fill="#FB35C6"/>
<path fill-rule="evenodd" clip-rule="evenodd" d="M17.8141 10.1426L17.8496 10.2425L-0.61339 16.8521L-0.648926 16.7522L17.8141 10.1426Z" fill="#FA35C7"/>
<path fill-rule="evenodd" clip-rule="evenodd" d="M17.8387 10.21L17.8743 10.3099L-0.590929 16.9195L-0.626465 16.8196L17.8387 10.21Z" fill="#FA35C7"/>
<path fill-rule="evenodd" clip-rule="evenodd" d="M17.8632 10.2754L17.8987 10.3753L-0.566515 16.9827L-0.602051 16.885L17.8632 10.2754Z" fill="#F935C8"/>
<path fill-rule="evenodd" clip-rule="evenodd" d="M17.8858 10.3428L17.9214 10.4427L-0.541613 17.0501L-0.577148 16.9501L17.8858 10.3428Z" fill="#F835C8"/>
<path fill-rule="evenodd" clip-rule="evenodd" d="M17.9095 10.4082L17.9451 10.5081L-0.520128 17.1155L-0.555664 17.0156L17.9095 10.4082Z" fill="#F735C8"/>
<path fill-rule="evenodd" clip-rule="evenodd" d="M17.9345 10.4756L17.97 10.5755L-0.495226 17.1829L-0.530762 17.083L17.9345 10.4756Z" fill="#F635C9"/>
<path fill-rule="evenodd" clip-rule="evenodd" d="M17.9562 10.543L17.9939 10.6429L-0.4713 17.2503L-0.506836 17.1503L17.9562 10.543Z" fill="#F535C9"/>
<path fill-rule="evenodd" clip-rule="evenodd" d="M17.9813 10.6094L18.0169 10.7093L-0.44613 17.3167L-0.483887 17.2167L17.9813 10.6094Z" fill="#F436CA"/>
<path fill-rule="evenodd" clip-rule="evenodd" d="M18.0053 10.6748L18.0408 10.7747L-0.424425 17.3821L-0.459961 17.2822L18.0053 10.6748Z" fill="#F336CA"/>
<path fill-rule="evenodd" clip-rule="evenodd" d="M18.0297 10.7422L18.0652 10.8421L-0.400011 17.4495L-0.435547 17.3496L18.0297 10.7422Z" fill="#F236CA"/>
<path fill-rule="evenodd" clip-rule="evenodd" d="M18.0523 10.8066L18.0879 10.9066L-0.375109 17.5162L-0.410645 17.4162L18.0523 10.8066Z" fill="#F136CB"/>
<path fill-rule="evenodd" clip-rule="evenodd" d="M18.0765 10.873L18.1121 10.973L-0.353136 17.5826L-0.388672 17.4826L18.0765 10.873Z" fill="#F036CB"/>
<path fill-rule="evenodd" clip-rule="evenodd" d="M18.101 10.9395L18.1365 11.0394L-0.328722 17.649L-0.364258 17.549L18.101 10.9395Z" fill="#EF36CC"/>
<path fill-rule="evenodd" clip-rule="evenodd" d="M18.1227 11.0059L18.1604 11.1058L-0.304796 17.7154L-0.340332 17.6154L18.1227 11.0059Z" fill="#EE37CC"/>
<path fill-rule="evenodd" clip-rule="evenodd" d="M18.1473 11.0732L18.1829 11.1732L-0.282335 17.7806L-0.317871 17.6828L18.1473 11.0732Z" fill="#EC37CC"/>
<path fill-rule="evenodd" clip-rule="evenodd" d="M18.1718 11.1396L18.2073 11.2396L-0.257921 17.847L-0.293457 17.747L18.1718 11.1396Z" fill="#EB37CD"/>
<path fill-rule="evenodd" clip-rule="evenodd" d="M18.1962 11.2061L18.2317 11.306L-0.233507 17.9134L-0.269043 17.8134L18.1962 11.2061Z" fill="#EA37CD"/>
<path fill-rule="evenodd" clip-rule="evenodd" d="M18.2184 11.2734L18.2539 11.3734L-0.209093 17.9808L-0.244629 17.8808L18.2184 11.2734Z" fill="#E837CE"/>
<path fill-rule="evenodd" clip-rule="evenodd" d="M18.2426 11.3398L18.2781 11.4398L-0.187121 18.0472L-0.222656 17.9472L18.2426 11.3398Z" fill="#E738CE"/>
<path fill-rule="evenodd" clip-rule="evenodd" d="M18.2675 11.4062L18.303 11.5062L-0.162218 18.1136L-0.197754 18.0136L18.2675 11.4062Z" fill="#E638CE"/>
<path fill-rule="evenodd" clip-rule="evenodd" d="M18.2897 11.4727L18.3252 11.5726L-0.137804 18.18L-0.17334 18.08L18.2897 11.4727Z" fill="#E438CF"/>
<path fill-rule="evenodd" clip-rule="evenodd" d="M18.3138 11.5391L18.3494 11.6368L-0.115832 18.2464L-0.151367 18.1464L18.3138 11.5391Z" fill="#E338CF"/>
<path fill-rule="evenodd" clip-rule="evenodd" d="M18.3383 11.6035L18.3738 11.7035L-0.0914175 18.313L-0.126953 18.2131L18.3383 11.6035Z" fill="#E138D0"/>
<path fill-rule="evenodd" clip-rule="evenodd" d="M18.3605 11.6709L18.3982 11.7708L-0.0670034 18.3804L-0.102539 18.2805L18.3605 11.6709Z" fill="#E039D0"/>
<path fill-rule="evenodd" clip-rule="evenodd" d="M18.3851 11.7373L18.4207 11.8372L-0.0445425 18.4468L-0.0800781 18.3469L18.3851 11.7373Z" fill="#DE39D0"/>
<path fill-rule="evenodd" clip-rule="evenodd" d="M18.4091 11.8047L18.4446 11.9046L-0.0206167 18.512L-0.0561523 18.4143L18.4091 11.8047Z" fill="#DD39D1"/>
<path fill-rule="evenodd" clip-rule="evenodd" d="M18.4345 11.8701L18.47 11.9701L0.00477393 18.5774L-0.0307617 18.4775L18.4345 11.8701Z" fill="#DB39D1"/>
<path fill-rule="evenodd" clip-rule="evenodd" d="M18.4562 11.9365L18.4917 12.0365L0.0286997 18.6438L-0.00683594 18.5439L18.4562 11.9365Z" fill="#DA3AD1"/>
<path fill-rule="evenodd" clip-rule="evenodd" d="M18.4808 12.0039L18.5164 12.1038L0.0511607 18.7112L0.015625 18.6113L18.4808 12.0039Z" fill="#D83AD2"/>
<path fill-rule="evenodd" clip-rule="evenodd" d="M18.5053 12.0703L18.5408 12.1703L0.0755747 18.7776L0.0400391 18.6777L18.5053 12.0703Z" fill="#D63AD2"/>
<path fill-rule="evenodd" clip-rule="evenodd" d="M18.527 12.1367L18.5625 12.2367L0.0995005 18.844L0.0639648 18.7441L18.527 12.1367Z" fill="#D53AD2"/>
<path fill-rule="evenodd" clip-rule="evenodd" d="M18.5516 12.2021L18.5872 12.3021L0.121961 18.9095L0.0864258 18.8095L18.5516 12.2021Z" fill="#D33BD3"/>
<path fill-rule="evenodd" clip-rule="evenodd" d="M18.5756 12.2686L18.6111 12.3663L0.145887 18.9759L0.110352 18.8759L18.5756 12.2686Z" fill="#D13BD3"/>
<path fill-rule="evenodd" clip-rule="evenodd" d="M18.6005 12.3369L18.636 12.4346L0.17079 19.0442L0.135254 18.9443L18.6005 12.3369Z" fill="#D03BD3"/>
<path fill-rule="evenodd" clip-rule="evenodd" d="M18.6227 12.4014L18.6582 12.5013L0.195204 19.1109L0.159668 19.011L18.6227 12.4014Z" fill="#CE3BD4"/>
<path fill-rule="evenodd" clip-rule="evenodd" d="M18.6469 12.4678L18.6824 12.5677L0.217176 19.1773L0.181641 19.0774L18.6469 12.4678Z" fill="#CC3CD4"/>
<path fill-rule="evenodd" clip-rule="evenodd" d="M18.6713 12.5342L18.7068 12.6341L0.24159 19.2415L0.206055 19.1438L18.6713 12.5342Z" fill="#CA3CD4"/>
<path fill-rule="evenodd" clip-rule="evenodd" d="M18.6935 12.6016L18.729 12.7015L0.266004 19.3089L0.230469 19.2112L18.6935 12.6016Z" fill="#C93CD5"/>
<path fill-rule="evenodd" clip-rule="evenodd" d="M18.7181 12.668L18.7537 12.7679L0.288465 19.3753L0.25293 19.2753L18.7181 12.668Z" fill="#C73DD5"/>
<path fill-rule="evenodd" clip-rule="evenodd" d="M18.7421 12.7334L18.7776 12.8333L0.312391 19.4407L0.276855 19.3408L18.7421 12.7334Z" fill="#C53DD5"/>
<path fill-rule="evenodd" clip-rule="evenodd" d="M18.7648 12.8008L18.8025 12.9007L0.337293 19.5081L0.301758 19.4082L18.7648 12.8008Z" fill="#C33DD6"/>
<path fill-rule="evenodd" clip-rule="evenodd" d="M18.7889 12.8672L18.8245 12.9671L0.361487 19.5745L0.32373 19.4746L18.7889 12.8672Z" fill="#C13DD6"/>
<path fill-rule="evenodd" clip-rule="evenodd" d="M18.8138 12.9346L18.8494 13.0345L0.384168 19.6419L0.348633 19.5419L18.8138 12.9346Z" fill="#C03ED6"/>
<path fill-rule="evenodd" clip-rule="evenodd" d="M18.8378 13.001L18.8733 13.0987L0.408094 19.7083L0.372559 19.6083L18.8378 13.001Z" fill="#BE3ED7"/>
<path fill-rule="evenodd" clip-rule="evenodd" d="M18.86 13.0674L18.8955 13.1651L0.432508 19.7747L0.396973 19.6748L18.86 13.0674Z" fill="#BC3ED7"/>
<path fill-rule="evenodd" clip-rule="evenodd" d="M18.8842 13.1309L18.9197 13.2308L0.454481 19.8404L0.418945 19.7404L18.8842 13.1309Z" fill="#BA3ED7"/>
<path fill-rule="evenodd" clip-rule="evenodd" d="M18.9091 13.1982L18.9446 13.2982L0.479383 19.9078L0.443848 19.8078L18.9091 13.1982Z" fill="#B83FD8"/>
<path fill-rule="evenodd" clip-rule="evenodd" d="M18.9317 13.2646L18.9673 13.3646L0.504286 19.972L0.46875 19.8742L18.9317 13.2646Z" fill="#B73FD8"/>
<path fill-rule="evenodd" clip-rule="evenodd" d="M18.9554 13.3311L18.991 13.431L0.52577 20.0384L0.490234 19.9406L18.9554 13.3311Z" fill="#B53FD8"/>
<path fill-rule="evenodd" clip-rule="evenodd" d="M18.9804 13.3975L19.0159 13.4974L0.550672 20.1048L0.515137 20.0048L18.9804 13.3975Z" fill="#B340D8"/>
<path fill-rule="evenodd" clip-rule="evenodd" d="M19.0048 13.4648L19.0403 13.5648L0.575086 20.1722L0.539551 20.0722L19.0048 13.4648Z" fill="#B140D9"/>
<path fill-rule="evenodd" clip-rule="evenodd" d="M19.0267 13.5312L19.0623 13.6312L0.59928 20.2386L0.561523 20.1386L19.0267 13.5312Z" fill="#AF40D9"/>
<path fill-rule="evenodd" clip-rule="evenodd" d="M19.0507 13.5977L19.0862 13.6976L0.620985 20.305L0.585449 20.205L19.0507 13.5977Z" fill="#AE40D9"/>
<path fill-rule="evenodd" clip-rule="evenodd" d="M19.0756 13.6641L19.1111 13.764L0.645887 20.3714L0.610352 20.2714L19.0756 13.6641Z" fill="#AC41D9"/>
<path fill-rule="evenodd" clip-rule="evenodd" d="M19.0982 13.7314L19.1338 13.8292L0.67079 20.4388L0.635254 20.3388L19.0982 13.7314Z" fill="#AA41DA"/>
<path fill-rule="evenodd" clip-rule="evenodd" d="M19.1224 13.7979L19.158 13.8956L0.692762 20.5052L0.657227 20.4052L19.1224 13.7979Z" fill="#A841DA"/>
<path fill-rule="evenodd" clip-rule="evenodd" d="M19.1469 13.8643L19.1824 13.962L0.717176 20.5716L0.681641 20.4716L19.1469 13.8643Z" fill="#A641DA"/>
<path fill-rule="evenodd" clip-rule="evenodd" d="M19.1695 13.9287L19.2073 14.0287L0.742079 20.6382L0.706543 20.5383L19.1695 13.9287Z" fill="#A542DA"/>
<path fill-rule="evenodd" clip-rule="evenodd" d="M19.1928 13.9951L19.2283 14.0951L0.763075 20.7047L0.727539 20.6047L19.1928 13.9951Z" fill="#A342DB"/>
<path fill-rule="evenodd" clip-rule="evenodd" d="M19.2177 14.0615L19.2532 14.1615L0.787977 20.7688L0.752441 20.6711L19.2177 14.0615Z" fill="#A142DB"/>
<path fill-rule="evenodd" clip-rule="evenodd" d="M19.2421 14.1299L19.2776 14.2298L0.812391 20.8372L0.776855 20.7395L19.2421 14.1299Z" fill="#9F43DB"/>
<path fill-rule="evenodd" clip-rule="evenodd" d="M19.2647 14.1963L19.3003 14.2962L0.837293 20.9036L0.801758 20.8037L19.2647 14.1963Z" fill="#9E43DB"/>
<path fill-rule="evenodd" clip-rule="evenodd" d="M19.2885 14.2627L19.324 14.3626L0.858778 20.97L0.823242 20.8701L19.2885 14.2627Z" fill="#9C43DC"/>
<path fill-rule="evenodd" clip-rule="evenodd" d="M19.3138 14.3281L19.3494 14.4281L0.884168 21.0354L0.848633 20.9355L19.3138 14.3281Z" fill="#9A43DC"/>
<path fill-rule="evenodd" clip-rule="evenodd" d="M19.336 14.3955L19.3716 14.4955L0.908583 21.1028L0.873047 21.0029L19.336 14.3955Z" fill="#9944DC"/>
<path fill-rule="evenodd" clip-rule="evenodd" d="M19.3602 14.4629L19.3958 14.5628L0.930555 21.1702L0.89502 21.0703L19.3602 14.4629Z" fill="#9744DC"/>
<path fill-rule="evenodd" clip-rule="evenodd" d="M19.3846 14.5293L19.4202 14.627L0.954969 21.2366L0.919434 21.1367L19.3846 14.5293Z" fill="#9544DD"/>
<path fill-rule="evenodd" clip-rule="evenodd" d="M19.4091 14.5947L19.4446 14.6924L0.979383 21.302L0.943848 21.2021L19.4091 14.5947Z" fill="#9444DD"/>
<path fill-rule="evenodd" clip-rule="evenodd" d="M19.4312 14.6602L19.4668 14.7601L1.00158 21.3697L0.968262 21.2697L19.4312 14.6602Z" fill="#9245DD"/>
<path fill-rule="evenodd" clip-rule="evenodd" d="M19.4554 14.7275L19.491 14.8275L1.02577 21.4371L0.990234 21.3371L19.4554 14.7275Z" fill="#9045DD"/>
<path fill-rule="evenodd" clip-rule="evenodd" d="M19.4804 14.793L19.5159 14.8929L1.05067 21.5003L1.01514 21.4026L19.4804 14.793Z" fill="#8F45DD"/>
<path fill-rule="evenodd" clip-rule="evenodd" d="M19.5025 14.8594L19.5381 14.9593L1.07509 21.5667L1.03955 21.469L19.5025 14.8594Z" fill="#8D45DE"/>
<path fill-rule="evenodd" clip-rule="evenodd" d="M19.5272 14.9268L19.5628 15.0267L1.09755 21.6341L1.06201 21.5341L19.5272 14.9268Z" fill="#8C45DE"/>
<path fill-rule="evenodd" clip-rule="evenodd" d="M19.5512 14.9932L19.5867 15.0931L1.12147 21.7005L1.08594 21.6005L19.5512 14.9932Z" fill="#8A46DE"/>
<path fill-rule="evenodd" clip-rule="evenodd" d="M19.5738 15.0596L19.6094 15.1595L1.14638 21.7669L1.11084 21.6669L19.5738 15.0596Z" fill="#8946DE"/>
<path fill-rule="evenodd" clip-rule="evenodd" d="M19.5975 15.127L19.6331 15.2269L1.16786 21.8343L1.13232 21.7343L19.5975 15.127Z" fill="#8746DE"/>
<path fill-rule="evenodd" clip-rule="evenodd" d="M19.622 15.1934L19.6575 15.2933L1.19227 21.9007L1.15674 21.8007L19.622 15.1934Z" fill="#8646DE"/>
<path fill-rule="evenodd" clip-rule="evenodd" d="M19.6469 15.2607L19.6824 15.3607L1.21718 21.9681L1.18164 21.8681L19.6469 15.2607Z" fill="#8547DF"/>
<path fill-rule="evenodd" clip-rule="evenodd" d="M19.6686 15.3262L19.7041 15.4239L1.2411 22.0335L1.20557 21.9335L19.6686 15.3262Z" fill="#8347DF"/>
<path fill-rule="evenodd" clip-rule="evenodd" d="M19.6932 15.3906L19.7288 15.4906L1.26356 22.1002L1.22803 22.0002L19.6932 15.3906Z" fill="#8247DF"/>
<path fill-rule="evenodd" clip-rule="evenodd" d="M19.7177 15.457L19.7532 15.557L1.28798 22.1666L1.25244 22.0666L19.7177 15.457Z" fill="#8147DF"/>
<path fill-rule="evenodd" clip-rule="evenodd" d="M19.7403 15.5244L19.7759 15.6244L1.31288 22.2339L1.27734 22.134L19.7403 15.5244Z" fill="#8047DF"/>
<path fill-rule="evenodd" clip-rule="evenodd" d="M19.7645 15.5898L19.8001 15.6898L1.33485 22.2972L1.29932 22.1994L19.7645 15.5898Z" fill="#7E48DF"/>
<path fill-rule="evenodd" clip-rule="evenodd" d="M19.7889 15.6572L19.8245 15.7572L1.35927 22.3645L1.32373 22.2646L19.7889 15.6572Z" fill="#7D48DF"/>
<path fill-rule="evenodd" clip-rule="evenodd" d="M19.8134 15.7236L19.8489 15.8236L1.38368 22.4309L1.34814 22.331L19.8134 15.7236Z" fill="#7C48E0"/>
<path fill-rule="evenodd" clip-rule="evenodd" d="M19.8353 15.791L19.8709 15.891L1.40787 22.4983L1.37012 22.3984L19.8353 15.791Z" fill="#7B48E0"/>
<path fill-rule="evenodd" clip-rule="evenodd" d="M19.8597 15.8564L19.8953 15.9564L1.43007 22.5638L1.39453 22.4638L19.8597 15.8564Z" fill="#7A48E0"/>
<path fill-rule="evenodd" clip-rule="evenodd" d="M19.8842 15.9229L19.9197 16.0228L1.45448 22.6302L1.41895 22.5302L19.8842 15.9229Z" fill="#7948E0"/>
<path fill-rule="evenodd" clip-rule="evenodd" d="M19.9063 15.9912L19.9419 16.0912L1.47889 22.6985L1.44336 22.5986L19.9063 15.9912Z" fill="#7849E0"/>
<path fill-rule="evenodd" clip-rule="evenodd" d="M19.931 16.0576L19.9666 16.1553L1.50136 22.7649L1.46582 22.665L19.931 16.0576Z" fill="#7749E0"/>
<path fill-rule="evenodd" clip-rule="evenodd" d="M19.955 16.1211L19.9905 16.221L1.52528 22.8306L1.48975 22.7307L19.955 16.1211Z" fill="#7649E0"/>
<path fill-rule="evenodd" clip-rule="evenodd" d="M19.9781 16.1885L20.0159 16.2884L1.55067 22.898L1.51514 22.7981L19.9781 16.1885Z" fill="#7549E0"/>
<path fill-rule="evenodd" clip-rule="evenodd" d="M20.0018 16.2559L20.0374 16.3558L1.57216 22.9654L1.53662 22.8655L20.0018 16.2559Z" fill="#7449E0"/>
<path fill-rule="evenodd" clip-rule="evenodd" d="M20.0267 16.3213L20.0623 16.4212L1.59706 23.0308L1.56152 22.9309L20.0267 16.3213Z" fill="#7349E0"/>
<path fill-rule="evenodd" clip-rule="evenodd" d="M20.0512 16.3877L20.0867 16.4876L1.62147 23.095L1.58594 22.9951L20.0512 16.3877Z" fill="#7349E1"/>
<path fill-rule="evenodd" clip-rule="evenodd" d="M20.0731 16.4541L20.1087 16.554L1.64567 23.1614L1.60791 23.0615L20.0731 16.4541Z" fill="#7249E1"/>
<path fill-rule="evenodd" clip-rule="evenodd" d="M20.0975 16.5215L20.1331 16.6214L1.66786 23.2288L1.63232 23.1289L20.0975 16.5215Z" fill="#7149E1"/>
<path fill-rule="evenodd" clip-rule="evenodd" d="M20.1215 16.5879L20.157 16.6878L1.69179 23.2952L1.65625 23.1953L20.1215 16.5879Z" fill="#714AE1"/>
<path fill-rule="evenodd" clip-rule="evenodd" d="M20.1441 16.6543L20.1797 16.7542L1.71669 23.3616L1.68115 23.2617L20.1441 16.6543Z" fill="#704AE1"/>
<path fill-rule="evenodd" clip-rule="evenodd" d="M20.1683 16.7207L20.2039 16.8206L1.73866 23.428L1.70312 23.3281L20.1683 16.7207Z" fill="#704AE1"/>
<path fill-rule="evenodd" clip-rule="evenodd" d="M20.1932 16.7871L20.2288 16.8871L1.76356 23.4944L1.72803 23.3945L20.1932 16.7871Z" fill="#6F4AE1"/>
<path fill-rule="evenodd" clip-rule="evenodd" d="M20.2149 16.8516L20.2527 16.9515L1.78749 23.5611L1.75195 23.4612L20.2149 16.8516Z" fill="#6F4AE1"/>
<path fill-rule="evenodd" clip-rule="evenodd" d="M20.2401 16.918L20.2757 17.0179L1.81044 23.6275L1.7749 23.5276L20.2401 16.918Z" fill="#6F4AE1"/>
<path fill-rule="evenodd" clip-rule="evenodd" d="M20.2636 16.9854L20.2991 17.0853L1.83388 23.6949L1.79834 23.5949L20.2636 16.9854Z" fill="#6E4AE1"/>
<path fill-rule="evenodd" clip-rule="evenodd" d="M20.288 17.0518L20.3235 17.1517L1.85829 23.7613L1.82275 23.6613L20.288 17.0518Z" fill="#6E4AE1"/>
<path fill-rule="evenodd" clip-rule="evenodd" d="M20.3106 17.1182L20.3462 17.2181L1.88319 23.8255L1.84766 23.7278L20.3106 17.1182Z" fill="#6E4AE1"/>
<path fill-rule="evenodd" clip-rule="evenodd" d="M20.3348 17.1855L20.3704 17.2855L1.90516 23.8929L1.86963 23.7929L20.3348 17.1855Z" fill="#6E4AE1"/>
<path fill-rule="evenodd" clip-rule="evenodd" d="M20.3597 17.251L20.8306 18.5658L2.36538 25.1732L1.89453 23.8583L20.3597 17.251Z" fill="#6E4AE1"/>
</g>
</svg>
